<?xml version="1.0" encoding="UTF-8" standalone="no"?>
<!--?xml version="1.0" encoding="utf-8"?-->

<!-- Generator: Adobe Illustrator 16.0.4, SVG Export Plug-In . SVG Version: 6.00 Build 0)  -->

<svg
   xmlns:dc="http://purl.org/dc/elements/1.1/"
   xmlns:cc="http://creativecommons.org/ns#"
   xmlns:rdf="http://www.w3.org/1999/02/22-rdf-syntax-ns#"
   xmlns:svg="http://www.w3.org/2000/svg"
   xmlns="http://www.w3.org/2000/svg"
   xmlns:sodipodi="http://sodipodi.sourceforge.net/DTD/sodipodi-0.dtd"
   xmlns:inkscape="http://www.inkscape.org/namespaces/inkscape"
   version="1.1"
   id="Ebene_1"
   x="0px"
   y="0px"
   width="1077.051"
   height="359.017"
   viewBox="0 0 1077.051 359.017"
   enable-background="new 0 0 1280 359.017"
   xml:space="preserve"
   sodipodi:docname="transfrauen-selbsthilfe.svg"
   inkscape:version="0.92.4 (5da689c313, 2019-01-14)"><metadata
   id="metadata262"><rdf:RDF><cc:Work
       rdf:about=""><dc:format>image/svg+xml</dc:format><dc:type
         rdf:resource="http://purl.org/dc/dcmitype/StillImage" /><dc:title></dc:title></cc:Work></rdf:RDF></metadata><defs
   id="defs260" /><sodipodi:namedview
   pagecolor="#ffffff"
   bordercolor="#666666"
   borderopacity="1"
   objecttolerance="10"
   gridtolerance="10"
   guidetolerance="10"
   inkscape:pageopacity="0"
   inkscape:pageshadow="2"
   inkscape:window-width="1284"
   inkscape:window-height="870"
   id="namedview258"
   showgrid="false"
   inkscape:zoom="0.70543202"
   inkscape:cx="369.66073"
   inkscape:cy="284.621"
   inkscape:window-x="0"
   inkscape:window-y="0"
   inkscape:window-maximized="0"
   inkscape:current-layer="Ebene_1" />
<linearGradient
   id="SVGID_1_"
   gradientUnits="userSpaceOnUse"
   x1="962.79999"
   y1="399.8591"
   x2="962.79999"
   y2="319.97049"
   gradientTransform="matrix(1,0,0,-1,-21.318766,399.8589)">
	<stop
   offset="0"
   style="stop-color:#6F2281"
   id="stop2" />
	<stop
   offset="0.5018"
   style="stop-color:#6F2281"
   id="stop4" />
	<stop
   offset="1"
   style="stop-color:#FFFFFF"
   id="stop6" />
</linearGradient>
<rect
   x="879.41443"
   y="3.4179689e-06"
   width="124.135"
   height="79.889999"
   id="rect9"
   style="fill:url(#SVGID_1_)" />
<linearGradient
   id="SVGID_2_"
   gradientUnits="userSpaceOnUse"
   x1="838.66431"
   y1="399.8591"
   x2="838.66431"
   y2="319.97049"
   gradientTransform="matrix(1,0,0,-1,-21.318766,399.8589)">
	<stop
   offset="0"
   style="stop-color:#3157A3"
   id="stop11" />
	<stop
   offset="0.5018"
   style="stop-color:#3157A3"
   id="stop13" />
	<stop
   offset="1"
   style="stop-color:#FFFFFF"
   id="stop15" />
</linearGradient>
<rect
   x="755.27747"
   y="3.4179689e-06"
   width="124.138"
   height="79.889999"
   id="rect18"
   style="fill:url(#SVGID_2_)" />
<linearGradient
   id="SVGID_3_"
   gradientUnits="userSpaceOnUse"
   x1="714.52948"
   y1="399.8591"
   x2="714.52948"
   y2="319.97049"
   gradientTransform="matrix(1,0,0,-1,-21.318766,399.8589)">
	<stop
   offset="0"
   style="stop-color:#088036"
   id="stop20" />
	<stop
   offset="0.5018"
   style="stop-color:#088036"
   id="stop22" />
	<stop
   offset="1"
   style="stop-color:#FFFFFF"
   id="stop24" />
</linearGradient>
<rect
   x="631.14343"
   y="3.4179689e-06"
   width="124.134"
   height="79.889999"
   id="rect27"
   style="fill:url(#SVGID_3_)" />
<linearGradient
   id="SVGID_4_"
   gradientUnits="userSpaceOnUse"
   x1="590.39331"
   y1="399.8591"
   x2="590.39331"
   y2="319.97049"
   gradientTransform="matrix(1,0,0,-1,-21.318766,399.8589)">
	<stop
   offset="0"
   style="stop-color:#FCEA18"
   id="stop29" />
	<stop
   offset="0.5018"
   style="stop-color:#FCEA18"
   id="stop31" />
	<stop
   offset="1"
   style="stop-color:#FFFFFF"
   id="stop33" />
</linearGradient>
<rect
   x="507.00742"
   y="3.4179689e-06"
   width="124.135"
   height="79.889999"
   id="rect36"
   style="fill:url(#SVGID_4_)" />
<linearGradient
   id="SVGID_5_"
   gradientUnits="userSpaceOnUse"
   x1="466.25851"
   y1="399.8591"
   x2="466.25851"
   y2="319.97049"
   gradientTransform="matrix(1,0,0,-1,-21.318766,399.8589)">
	<stop
   offset="0"
   style="stop-color:#F18918"
   id="stop38" />
	<stop
   offset="0.5018"
   style="stop-color:#F18918"
   id="stop40" />
	<stop
   offset="1"
   style="stop-color:#FFFFFF"
   id="stop42" />
</linearGradient>
<rect
   x="382.87143"
   y="3.4179689e-06"
   width="124.136"
   height="79.889999"
   id="rect45"
   style="fill:url(#SVGID_5_)" />
<linearGradient
   id="SVGID_6_"
   gradientUnits="userSpaceOnUse"
   x1="342.12381"
   y1="399.8591"
   x2="342.12381"
   y2="319.97049"
   gradientTransform="matrix(1,0,0,-1,-21.318766,399.8589)">
	<stop
   offset="0"
   style="stop-color:#E20A13"
   id="stop47" />
	<stop
   offset="0.5018"
   style="stop-color:#E20A13"
   id="stop49" />
	<stop
   offset="1"
   style="stop-color:#FFFFFF"
   id="stop51" />
</linearGradient>
<rect
   x="258.73642"
   y="3.4179689e-06"
   width="124.136"
   height="79.889999"
   id="rect54"
   style="fill:url(#SVGID_6_)" />
<g
   id="g72"
   transform="translate(-76.548836,3.4179688e-6)">
	<path
   d="m 890.448,250.963 c -0.396,-10.192 0.605,-20.346 0.934,-30.514 0.675,-21.034 1.651,-42.058 2.449,-63.087 0.292,-7.689 0.211,-15.397 0.723,-23.069 0.273,-4.114 -1.231,-6.28 -5.007,-7.517 -2.516,-0.824 -5.251,-1.621 -5.405,-5.218 -0.076,-1.743 0.195,-2.5 2.07,-2.489 8.94,0.049 17.882,0.013 26.822,0.037 0.846,0.002 2.103,-0.214 2.078,1.098 -0.033,1.766 0.146,3.778 -1.732,4.858 -1.465,0.843 -3.008,1.609 -4.604,2.148 -2.977,1.004 -4.178,2.771 -4.053,6.062 0.643,16.846 1.002,33.704 1.594,50.553 0.51,14.473 1.271,28.938 1.779,43.41 0.276,7.906 1.152,15.799 0.7,23.729 -6.116,-0.001 -12.232,-0.001 -18.348,-0.001 z"
   id="path56"
   inkscape:connector-curvature="0"
   style="fill:#777777" />
	<path
   d="m 899.328,74.373 c -5.088,-0.002 -10.18,-0.076 -15.266,0.031 -2.218,0.047 -3.271,-0.897 -2.99,-2.982 0.286,-2.135 -1.788,-5.289 2.3,-5.972 1.228,-0.205 2.458,-0.389 3.692,-0.54 5.945,-0.728 5.949,-0.722 6.178,-6.884 0.06,-1.583 -0.113,-3.323 1.258,-4.419 2.695,-2.156 3.034,-5.066 3.105,-8.199 0.301,-13.338 0.663,-26.676 1,-40.014 0.023,-0.904 -0.058,-1.82 0.063,-2.711 0.134,-0.997 -0.522,-2.709 1.066,-2.683 1.201,0.021 0.816,1.646 0.842,2.589 0.272,10.286 0.503,20.573 0.745,30.86 0.088,3.73 0.173,7.461 0.271,11.191 0.089,3.415 0.387,6.628 3.273,9.195 1.953,1.735 1.177,4.507 1.138,6.811 -0.047,2.748 1.081,3.925 3.72,4.064 1.688,0.091 3.363,0.516 5.051,0.562 2.713,0.076 3.711,1.252 3.578,4.02 -0.244,5.068 -0.107,5.077 -5.114,5.082 -4.636,0.005 -9.273,0.002 -13.91,-10e-4 z"
   id="path58"
   inkscape:connector-curvature="0"
   style="fill:#777777" />
	<path
   d="m 899.623,88.4 c -4.756,0 -9.512,0.012 -14.268,-0.007 -1.377,-0.006 -2.898,0.032 -2.946,-1.937 -0.055,-2.22 1.729,-1.733 2.946,-1.741 9.511,-0.049 19.022,-0.049 28.533,0 1.219,0.007 3.001,-0.479 2.947,1.74 -0.049,1.968 -1.569,1.932 -2.946,1.938 -4.755,0.019 -9.511,0.007 -14.266,0.007 z"
   id="path60"
   inkscape:connector-curvature="0"
   style="fill:#f18918" />
	<path
   d="m 899.616,77.796 c 4.978,0 9.954,-0.039 14.93,0.028 1.209,0.016 3.013,-0.528 2.929,1.716 -0.067,1.79 -1.505,1.729 -2.747,1.731 -10.066,0.017 -20.131,0.017 -30.197,-0.001 -1.236,-0.002 -2.681,0.073 -2.758,-1.721 -0.096,-2.245 1.705,-1.711 2.917,-1.727 4.973,-0.064 9.951,-0.026 14.926,-0.026 z"
   id="path62"
   inkscape:connector-curvature="0"
   style="fill:#e20a13" />
	<path
   d="m 899.635,91.813 c 4.625,10e-4 9.25,-0.032 13.874,0.025 1.009,0.014 2.47,-0.396 2.55,1.371 0.075,1.636 -0.955,2.087 -2.406,2.084 -9.361,-0.016 -18.725,-0.016 -28.086,-0.001 -1.465,0.002 -2.475,-0.484 -2.38,-2.107 0.104,-1.756 1.567,-1.333 2.574,-1.347 4.625,-0.057 9.25,-0.025 13.874,-0.025 z"
   id="path64"
   inkscape:connector-curvature="0"
   style="fill:#fcea18" />
	<path
   d="m 899.623,109.466 c -4.104,0 -8.21,0.013 -12.313,-0.007 -1.188,-0.006 -2.502,0.032 -2.544,-1.936 -0.046,-2.22 1.491,-1.735 2.544,-1.741 8.209,-0.049 16.417,-0.049 24.627,0 1.052,0.006 2.59,-0.479 2.545,1.74 -0.042,1.968 -1.354,1.93 -2.544,1.937 -4.106,0.02 -8.211,0.007 -12.315,0.007 z"
   id="path66"
   inkscape:connector-curvature="0"
   style="fill:#3157a3" />
	<path
   d="m 899.617,98.863 c 4.295,0 8.592,-0.039 12.887,0.028 1.044,0.016 2.6,-0.528 2.527,1.716 -0.06,1.79 -1.3,1.729 -2.372,1.73 -8.688,0.018 -17.376,0.018 -26.062,0 -1.068,-0.002 -2.314,0.073 -2.381,-1.72 -0.083,-2.247 1.473,-1.711 2.518,-1.727 4.294,-0.065 8.589,-0.027 12.883,-0.027 z"
   id="path68"
   inkscape:connector-curvature="0"
   style="fill:#088036" />
	<path
   d="m 899.634,112.88 c 3.991,0 7.982,-0.031 11.975,0.026 0.871,0.013 2.131,-0.396 2.201,1.371 0.063,1.634 -0.825,2.086 -2.078,2.084 -8.08,-0.016 -16.161,-0.017 -24.241,-0.001 -1.264,0.002 -2.136,-0.485 -2.055,-2.108 0.09,-1.756 1.354,-1.333 2.223,-1.346 3.991,-0.058 7.983,-0.026 11.975,-0.026 z"
   id="path70"
   inkscape:connector-curvature="0"
   style="fill:#6f2281" />
</g>
<linearGradient
   id="SVGID_7_"
   gradientUnits="userSpaceOnUse"
   x1="447.11301"
   y1="148.8958"
   x2="447.11301"
   y2="40.841999"
   gradientTransform="matrix(1,0,0,-1,-0.0552,399.8589)">
	<stop
   offset="0"
   style="stop-color:#FFFFFF"
   id="stop74" />
	<stop
   offset="0.5018"
   style="stop-color:#5BCEFA"
   id="stop76" />
	<stop
   offset="1"
   style="stop-color:#5BCEFA"
   id="stop78" />
</linearGradient>
<polyline
   points="880.938,250.963 0.89,359.016 256.912,359.016 893.225,250.963 "
   id="polyline81"
   style="fill:url(#SVGID_7_)"
   transform="translate(-76.548836,3.4179688e-6)" />
<path
   d="M 180.36316,359.016"
   id="path83"
   inkscape:connector-curvature="0"
   style="fill:#ffffff" />
<path
   d="M 180.36316,359.016"
   id="path85"
   inkscape:connector-curvature="0"
   style="fill:#ffffff" />
<linearGradient
   id="SVGID_8_"
   gradientUnits="userSpaceOnUse"
   x1="578.85522"
   y1="148.8958"
   x2="578.85522"
   y2="40.841999"
   gradientTransform="matrix(1,0,0,-1,-0.0552,399.8589)">
	<stop
   offset="0"
   style="stop-color:#FFFFFF"
   id="stop87" />
	<stop
   offset="0.5018"
   style="stop-color:#F5A9B8"
   id="stop89" />
	<stop
   offset="0.9694"
   style="stop-color:#F5A9B8"
   id="stop91" />
</linearGradient>
<polyline
   points="894.085,250.963 257.904,359.016 513.925,359.016 899.697,250.963 "
   id="polyline94"
   style="fill:url(#SVGID_8_)"
   transform="translate(-76.548836,3.4179688e-6)" />
<linearGradient
   id="SVGID_9_"
   gradientUnits="userSpaceOnUse"
   x1="897.02173"
   y1="148.8958"
   x2="897.02173"
   y2="40.841999"
   gradientTransform="matrix(1,0,0,-1,-0.0552,399.8589)">
	<stop
   offset="0"
   style="stop-color:#FFFFFF"
   id="stop96" />
	<stop
   offset="0.5018"
   style="stop-color:#F5A9B8"
   id="stop98" />
	<stop
   offset="0.9694"
   style="stop-color:#F5A9B8"
   id="stop100" />
</linearGradient>
<polyline
   points="905.385,250.963 768.956,359.016 1024.977,359.016 909.323,250.963 "
   id="polyline103"
   style="fill:url(#SVGID_9_)"
   transform="translate(-76.548836,3.4179688e-6)" />
<linearGradient
   id="SVGID_10_"
   gradientUnits="userSpaceOnUse"
   x1="1095.012"
   y1="148.8958"
   x2="1095.012"
   y2="40.841999"
   gradientTransform="matrix(1,0,0,-1,-0.0552,399.8589)">
	<stop
   offset="0"
   style="stop-color:#FFFFFF"
   id="stop105" />
	<stop
   offset="0.5018"
   style="stop-color:#5BCEFA"
   id="stop107" />
	<stop
   offset="1"
   style="stop-color:#5BCEFA"
   id="stop109" />
</linearGradient>
<polyline
   points="909.389,250.963 1024.504,359.016 1280.525,359.016 911.675,250.963 "
   id="polyline112"
   style="fill:url(#SVGID_10_)"
   transform="translate(-76.548836,3.4179688e-6)" />
<g
   id="g248"
   transform="translate(0,3.4179688e-6)">
	<path
   d="m 39.936,142.757 c 0,0.841 -0.324,1.465 -0.972,1.872 -0.648,0.408 -1.572,0.576 -2.772,0.504 l -1.008,-0.071 c -2.16,-0.167 -3.798,-0.822 -4.914,-1.962 -1.116,-1.141 -1.674,-2.73 -1.674,-4.771 v -6.372 h -1.044 c -1.92,0 -2.88,-0.792 -2.88,-2.376 0,-1.56 0.959,-2.34 2.88,-2.34 h 1.044 v -2.34 c 0,-0.912 0.288,-1.638 0.864,-2.178 0.576,-0.54 1.354,-0.811 2.34,-0.811 0.984,0 1.764,0.271 2.34,0.811 0.576,0.54 0.864,1.266 0.864,2.178 v 2.34 h 1.979 c 1.92,0 2.88,0.78 2.88,2.34 0,1.584 -0.96,2.376 -2.88,2.376 h -1.979 v 6.912 c 0,0.456 0.138,0.84 0.414,1.152 0.274,0.312 0.63,0.479 1.062,0.504 l 1.044,0.072 c 1.608,0.096 2.412,0.816 2.412,2.16 z"
   id="path114"
   inkscape:connector-curvature="0" />
	<path
   d="m 54.804,127.438 c 0.48,0.443 0.72,1.098 0.72,1.962 0,0.96 -0.222,1.656 -0.666,2.088 -0.443,0.432 -1.241,0.708 -2.394,0.828 l -1.08,0.107 c -1.2,0.145 -2.058,0.522 -2.574,1.135 -0.517,0.611 -0.773,1.445 -0.773,2.502 v 6.155 c 0,0.984 -0.307,1.723 -0.918,2.215 -0.612,0.491 -1.374,0.737 -2.286,0.737 -0.913,0 -1.674,-0.246 -2.286,-0.737 -0.612,-0.492 -0.918,-1.229 -0.918,-2.215 V 129.76 c 0,-0.912 0.306,-1.62 0.918,-2.124 0.612,-0.505 1.35,-0.757 2.214,-0.757 0.888,0 1.602,0.24 2.142,0.721 0.54,0.479 0.811,1.151 0.811,2.016 v 0.685 c 0.384,-1.057 1.014,-1.872 1.89,-2.448 0.875,-0.576 1.793,-0.889 2.754,-0.937 l 0.504,-0.036 c 0.814,-0.071 1.462,0.115 1.942,0.558 z"
   id="path116"
   inkscape:connector-curvature="0" />
	<path
   d="m 71.058,128.771 c 1.309,1.309 1.962,3.294 1.962,5.958 v 7.523 c 0,0.913 -0.27,1.626 -0.81,2.143 -0.54,0.517 -1.291,0.773 -2.25,0.773 -0.84,0 -1.53,-0.238 -2.07,-0.72 -0.54,-0.479 -0.834,-1.128 -0.882,-1.944 -0.336,0.864 -0.9,1.537 -1.692,2.017 -0.792,0.48 -1.739,0.72 -2.844,0.72 -1.224,0 -2.329,-0.247 -3.312,-0.738 -0.984,-0.49 -1.76,-1.175 -2.322,-2.052 -0.564,-0.876 -0.846,-1.866 -0.846,-2.97 0,-1.271 0.329,-2.286 0.989,-3.042 0.66,-0.756 1.71,-1.301 3.15,-1.639 1.439,-0.336 3.384,-0.504 5.832,-0.504 h 0.972 v -0.432 c 0,-0.84 -0.191,-1.446 -0.576,-1.818 -0.384,-0.372 -1.031,-0.558 -1.943,-0.558 -0.984,0 -2.424,0.336 -4.32,1.008 -0.553,0.192 -1.021,0.288 -1.404,0.288 -0.6,0 -1.08,-0.216 -1.439,-0.647 -0.36,-0.433 -0.54,-0.996 -0.54,-1.692 0,-0.528 0.107,-0.96 0.324,-1.296 0.216,-0.335 0.562,-0.635 1.044,-0.9 0.84,-0.432 1.896,-0.778 3.168,-1.044 1.271,-0.264 2.52,-0.396 3.744,-0.396 2.735,0 4.756,0.654 6.065,1.962 z m -4.951,11.268 c 0.553,-0.611 0.828,-1.397 0.828,-2.357 v -0.433 h -0.576 c -1.535,0 -2.628,0.14 -3.275,0.414 -0.648,0.276 -0.973,0.738 -0.973,1.386 0,0.553 0.175,1.009 0.522,1.368 0.348,0.36 0.798,0.54 1.35,0.54 0.865,0 1.572,-0.306 2.124,-0.918 z"
   id="path118"
   inkscape:connector-curvature="0" />
	<path
   d="m 93.251,128.699 c 1.032,1.26 1.548,3.174 1.548,5.742 v 7.775 c 0,0.912 -0.288,1.633 -0.864,2.16 -0.576,0.528 -1.355,0.792 -2.34,0.792 -0.985,0 -1.764,-0.264 -2.34,-0.792 -0.576,-0.526 -0.864,-1.248 -0.864,-2.16 v -7.487 c 0,-1.057 -0.186,-1.824 -0.558,-2.305 -0.372,-0.479 -0.931,-0.72 -1.674,-0.72 -0.96,0 -1.724,0.307 -2.286,0.918 -0.564,0.612 -0.847,1.436 -0.847,2.466 v 7.128 c 0,0.912 -0.288,1.633 -0.863,2.16 -0.576,0.528 -1.356,0.792 -2.34,0.792 -0.984,0 -1.765,-0.264 -2.341,-0.792 -0.575,-0.526 -0.863,-1.248 -0.863,-2.16 v -12.455 c 0,-0.841 0.3,-1.53 0.899,-2.07 0.601,-0.54 1.38,-0.811 2.34,-0.811 0.912,0 1.639,0.252 2.179,0.757 0.54,0.504 0.81,1.164 0.81,1.979 0.624,-0.912 1.428,-1.607 2.412,-2.088 0.983,-0.48 2.075,-0.72 3.276,-0.72 2.111,10e-4 3.684,0.63 4.716,1.891 z"
   id="path120"
   inkscape:connector-curvature="0" />
	<path
   d="m 101.315,144.881 c -1.104,-0.239 -2.076,-0.624 -2.916,-1.151 -0.336,-0.167 -0.6,-0.456 -0.792,-0.864 -0.191,-0.408 -0.288,-0.864 -0.288,-1.368 0,-0.647 0.175,-1.182 0.522,-1.602 0.348,-0.419 0.786,-0.63 1.313,-0.63 0.36,0 0.696,0.042 1.009,0.126 0.312,0.084 0.695,0.222 1.151,0.414 0.769,0.264 1.445,0.468 2.034,0.611 0.588,0.145 1.338,0.216 2.25,0.216 0.648,0 1.158,-0.09 1.53,-0.27 0.372,-0.18 0.558,-0.438 0.558,-0.774 0,-0.264 -0.09,-0.468 -0.27,-0.611 -0.181,-0.145 -0.522,-0.282 -1.026,-0.414 -0.504,-0.131 -1.355,-0.318 -2.556,-0.559 -2.137,-0.407 -3.678,-1.025 -4.626,-1.854 -0.949,-0.828 -1.422,-1.998 -1.422,-3.51 0,-1.104 0.342,-2.101 1.025,-2.988 0.685,-0.888 1.625,-1.584 2.826,-2.088 1.2,-0.504 2.544,-0.756 4.032,-0.756 1.08,0 2.129,0.132 3.149,0.396 1.021,0.266 1.927,0.636 2.719,1.116 0.744,0.432 1.115,1.128 1.115,2.088 0,0.672 -0.18,1.236 -0.539,1.692 -0.36,0.456 -0.805,0.684 -1.332,0.684 -0.624,0 -1.368,-0.204 -2.232,-0.612 -0.576,-0.264 -1.086,-0.462 -1.53,-0.594 -0.443,-0.132 -0.966,-0.198 -1.565,-0.198 -0.602,0 -1.068,0.091 -1.404,0.271 -0.336,0.18 -0.504,0.438 -0.504,0.774 0,0.384 0.233,0.684 0.702,0.899 0.468,0.216 1.396,0.456 2.79,0.72 2.328,0.409 3.972,1.026 4.932,1.854 0.96,0.828 1.44,2.021 1.44,3.582 0,1.752 -0.727,3.149 -2.179,4.194 -1.453,1.044 -3.401,1.565 -5.85,1.565 -1.606,0.001 -2.963,-0.12 -4.066,-0.359 z"
   id="path122"
   inkscape:connector-curvature="0" />
	<path
   d="m 115.822,135.269 c 0,-1.656 0.996,-2.484 2.988,-2.484 h 6.769 c 1.008,0 1.758,0.216 2.25,0.648 0.491,0.432 0.737,1.044 0.737,1.836 0,0.792 -0.246,1.41 -0.737,1.854 -0.492,0.444 -1.242,0.666 -2.25,0.666 h -6.769 c -1.992,0 -2.988,-0.84 -2.988,-2.52 z"
   id="path124"
   inkscape:connector-curvature="0" />
	<path
   d="m 135.442,144.881 c -1.104,-0.239 -2.075,-0.624 -2.916,-1.151 -0.336,-0.167 -0.6,-0.456 -0.792,-0.864 -0.191,-0.408 -0.288,-0.864 -0.288,-1.368 0,-0.647 0.175,-1.182 0.522,-1.602 0.348,-0.419 0.786,-0.63 1.314,-0.63 0.359,0 0.695,0.042 1.008,0.126 0.312,0.084 0.695,0.222 1.151,0.414 0.769,0.264 1.445,0.468 2.034,0.611 0.588,0.145 1.338,0.216 2.25,0.216 0.648,0 1.158,-0.09 1.53,-0.27 0.372,-0.18 0.558,-0.438 0.558,-0.774 0,-0.264 -0.09,-0.468 -0.27,-0.611 -0.181,-0.145 -0.522,-0.282 -1.026,-0.414 -0.504,-0.131 -1.355,-0.318 -2.556,-0.559 -2.137,-0.407 -3.678,-1.025 -4.626,-1.854 -0.949,-0.828 -1.422,-1.998 -1.422,-3.51 0,-1.104 0.342,-2.101 1.025,-2.988 0.685,-0.888 1.625,-1.584 2.826,-2.088 1.2,-0.504 2.544,-0.756 4.032,-0.756 1.08,0 2.129,0.132 3.149,0.396 1.021,0.266 1.927,0.636 2.719,1.116 0.744,0.432 1.115,1.128 1.115,2.088 0,0.672 -0.18,1.236 -0.539,1.692 -0.36,0.456 -0.805,0.684 -1.332,0.684 -0.624,0 -1.368,-0.204 -2.232,-0.612 -0.576,-0.264 -1.086,-0.462 -1.53,-0.594 -0.443,-0.132 -0.966,-0.198 -1.565,-0.198 -0.602,0 -1.068,0.091 -1.404,0.271 -0.336,0.18 -0.504,0.438 -0.504,0.774 0,0.384 0.234,0.684 0.702,0.899 0.468,0.215 1.396,0.456 2.79,0.72 2.328,0.409 3.972,1.026 4.932,1.854 0.96,0.828 1.44,2.021 1.44,3.582 0,1.752 -0.727,3.149 -2.179,4.194 -1.453,1.044 -3.401,1.565 -5.85,1.565 -1.606,0.001 -2.962,-0.12 -4.066,-0.359 z"
   id="path126"
   inkscape:connector-curvature="0" />
	<path
   d="m 162.874,142.757 c 0,0.841 -0.324,1.465 -0.973,1.872 -0.647,0.408 -1.571,0.576 -2.771,0.504 l -1.008,-0.071 c -2.16,-0.167 -3.798,-0.822 -4.914,-1.962 -1.116,-1.141 -1.674,-2.73 -1.674,-4.771 v -6.372 h -1.045 c -1.92,0 -2.88,-0.792 -2.88,-2.376 0,-1.56 0.959,-2.34 2.88,-2.34 h 1.045 v -2.34 c 0,-0.912 0.287,-1.638 0.863,-2.178 0.576,-0.54 1.355,-0.811 2.34,-0.811 0.985,0 1.765,0.271 2.341,0.811 0.575,0.54 0.863,1.266 0.863,2.178 v 2.34 h 1.98 c 1.92,0 2.88,0.78 2.88,2.34 0,1.584 -0.96,2.376 -2.88,2.376 h -1.98 v 6.912 c 0,0.456 0.139,0.84 0.414,1.152 0.275,0.312 0.63,0.479 1.062,0.504 l 1.044,0.072 c 1.609,0.096 2.413,0.816 2.413,2.16 z"
   id="path128"
   inkscape:connector-curvature="0" />
	<path
   d="m 181.558,127.673 c 0.576,0.528 0.864,1.248 0.864,2.16 v 12.456 c 0,0.84 -0.3,1.53 -0.9,2.07 -0.6,0.54 -1.38,0.81 -2.34,0.81 -0.864,0 -1.572,-0.233 -2.124,-0.702 -0.552,-0.468 -0.84,-1.098 -0.864,-1.89 -0.552,0.864 -1.254,1.524 -2.105,1.98 -0.853,0.456 -1.831,0.684 -2.935,0.684 -2.279,0 -3.972,-0.63 -5.075,-1.89 -1.104,-1.261 -1.656,-3.173 -1.656,-5.742 v -7.776 c 0,-0.912 0.288,-1.632 0.864,-2.16 0.575,-0.527 1.355,-0.792 2.34,-0.792 0.983,0 1.764,0.265 2.34,0.792 0.576,0.528 0.864,1.248 0.864,2.16 v 7.92 c 0,1.729 0.742,2.593 2.231,2.593 0.864,0 1.571,-0.312 2.124,-0.937 0.552,-0.624 0.828,-1.439 0.828,-2.448 v -7.128 c 0,-0.912 0.288,-1.632 0.864,-2.16 0.576,-0.527 1.354,-0.792 2.34,-0.792 0.984,0 1.764,0.264 2.34,0.792 z"
   id="path130"
   inkscape:connector-curvature="0" />
	<path
   d="m 199.054,142.757 c 0,0.841 -0.324,1.465 -0.972,1.872 -0.648,0.408 -1.572,0.576 -2.772,0.504 l -1.008,-0.071 c -2.16,-0.167 -3.798,-0.822 -4.914,-1.962 -1.116,-1.141 -1.674,-2.73 -1.674,-4.771 v -6.372 h -1.044 c -1.92,0 -2.88,-0.792 -2.88,-2.376 0,-1.56 0.959,-2.34 2.88,-2.34 h 1.044 v -2.34 c 0,-0.912 0.288,-1.638 0.864,-2.178 0.575,-0.54 1.354,-0.811 2.34,-0.811 0.983,0 1.764,0.271 2.34,0.811 0.576,0.54 0.864,1.266 0.864,2.178 v 2.34 h 1.979 c 1.92,0 2.88,0.78 2.88,2.34 0,1.584 -0.96,2.376 -2.88,2.376 h -1.979 v 6.912 c 0,0.456 0.138,0.84 0.414,1.152 0.274,0.312 0.63,0.479 1.062,0.504 l 1.044,0.072 c 1.608,0.096 2.412,0.816 2.412,2.16 z"
   id="path132"
   inkscape:connector-curvature="0" />
	<path
   d="m 212.914,142.757 c 0,0.841 -0.324,1.465 -0.973,1.872 -0.647,0.408 -1.571,0.576 -2.771,0.504 l -1.008,-0.071 c -2.16,-0.167 -3.799,-0.822 -4.914,-1.962 -1.116,-1.141 -1.674,-2.73 -1.674,-4.771 v -6.372 h -1.045 c -1.92,0 -2.88,-0.792 -2.88,-2.376 0,-1.56 0.959,-2.34 2.88,-2.34 h 1.045 v -2.34 c 0,-0.912 0.287,-1.638 0.863,-2.178 0.576,-0.54 1.355,-0.811 2.34,-0.811 0.985,0 1.765,0.271 2.341,0.811 0.575,0.54 0.863,1.266 0.863,2.178 v 2.34 h 1.98 c 1.92,0 2.88,0.78 2.88,2.34 0,1.584 -0.96,2.376 -2.88,2.376 h -1.98 v 6.912 c 0,0.456 0.139,0.84 0.414,1.152 0.275,0.312 0.63,0.479 1.062,0.504 l 1.044,0.072 c 1.609,0.096 2.413,0.816 2.413,2.16 z"
   id="path134"
   inkscape:connector-curvature="0" />
	<path
   d="m 232.643,127.69 c 0.576,0.54 0.864,1.254 0.864,2.142 v 12.96 c 0,2.929 -0.882,5.148 -2.646,6.66 -1.764,1.512 -4.351,2.269 -7.758,2.269 -1.319,0 -2.567,-0.121 -3.744,-0.36 -1.176,-0.24 -2.172,-0.588 -2.987,-1.044 -0.433,-0.24 -0.774,-0.552 -1.026,-0.937 -0.252,-0.384 -0.378,-0.815 -0.378,-1.296 0,-0.695 0.174,-1.26 0.521,-1.691 0.349,-0.433 0.799,-0.648 1.351,-0.648 0.432,0 1.211,0.18 2.34,0.54 0.744,0.24 1.404,0.426 1.98,0.558 0.575,0.132 1.163,0.198 1.764,0.198 1.464,0 2.538,-0.306 3.222,-0.918 0.685,-0.611 1.026,-1.578 1.026,-2.897 v -1.368 c -0.528,0.792 -1.284,1.422 -2.269,1.89 -0.983,0.468 -2.052,0.702 -3.203,0.702 -1.536,0 -2.904,-0.36 -4.104,-1.08 -1.2,-0.72 -2.136,-1.746 -2.808,-3.078 -0.672,-1.332 -1.009,-2.874 -1.009,-4.626 0,-1.751 0.337,-3.299 1.009,-4.644 0.672,-1.345 1.607,-2.381 2.808,-3.114 1.2,-0.732 2.568,-1.098 4.104,-1.098 1.176,0 2.256,0.239 3.239,0.72 0.984,0.479 1.74,1.14 2.269,1.979 0.048,-0.815 0.354,-1.458 0.918,-1.926 0.562,-0.468 1.301,-0.702 2.214,-0.702 0.958,0 1.726,0.27 2.303,0.809 z m -6.372,10.927 c 0.624,-0.696 0.937,-1.68 0.937,-2.952 0,-1.271 -0.312,-2.268 -0.937,-2.987 -0.625,-0.721 -1.5,-1.08 -2.628,-1.08 -1.104,0 -1.968,0.354 -2.592,1.062 -0.625,0.708 -0.937,1.71 -0.937,3.006 0,1.248 0.318,2.228 0.954,2.935 0.637,0.708 1.494,1.062 2.574,1.062 1.128,-0.002 2.004,-0.35 2.629,-1.046 z"
   id="path136"
   inkscape:connector-curvature="0" />
	<path
   d="m 251.561,128.771 c 1.309,1.309 1.962,3.294 1.962,5.958 v 7.523 c 0,0.913 -0.27,1.626 -0.81,2.143 -0.54,0.517 -1.291,0.773 -2.25,0.773 -0.84,0 -1.53,-0.238 -2.07,-0.72 -0.54,-0.479 -0.834,-1.128 -0.882,-1.944 -0.336,0.864 -0.9,1.537 -1.692,2.017 -0.792,0.48 -1.739,0.72 -2.844,0.72 -1.224,0 -2.329,-0.247 -3.312,-0.738 -0.984,-0.49 -1.76,-1.175 -2.322,-2.052 -0.564,-0.876 -0.846,-1.866 -0.846,-2.97 0,-1.271 0.33,-2.286 0.989,-3.042 0.66,-0.756 1.71,-1.301 3.15,-1.639 1.44,-0.336 3.384,-0.504 5.832,-0.504 h 0.972 v -0.432 c 0,-0.84 -0.191,-1.446 -0.576,-1.818 -0.384,-0.372 -1.031,-0.558 -1.943,-0.558 -0.984,0 -2.424,0.336 -4.32,1.008 -0.553,0.192 -1.021,0.288 -1.404,0.288 -0.6,0 -1.08,-0.216 -1.439,-0.647 -0.36,-0.433 -0.54,-0.996 -0.54,-1.692 0,-0.528 0.107,-0.96 0.324,-1.296 0.216,-0.335 0.562,-0.635 1.044,-0.9 0.84,-0.432 1.896,-0.778 3.168,-1.044 1.271,-0.264 2.52,-0.396 3.744,-0.396 2.734,0 4.756,0.654 6.065,1.962 z m -4.951,11.268 c 0.553,-0.611 0.828,-1.397 0.828,-2.357 v -0.433 h -0.576 c -1.535,0 -2.628,0.14 -3.275,0.414 -0.648,0.276 -0.973,0.738 -0.973,1.386 0,0.553 0.175,1.009 0.522,1.368 0.348,0.36 0.798,0.54 1.35,0.54 0.865,0 1.572,-0.306 2.124,-0.918 z"
   id="path138"
   inkscape:connector-curvature="0" />
	<path
   d="m 270.297,127.438 c 0.479,0.443 0.72,1.098 0.72,1.962 0,0.96 -0.222,1.656 -0.666,2.088 -0.443,0.432 -1.242,0.708 -2.394,0.828 l -1.08,0.107 c -1.2,0.145 -2.059,0.522 -2.574,1.135 -0.517,0.611 -0.774,1.445 -0.774,2.502 v 6.155 c 0,0.984 -0.306,1.723 -0.918,2.215 -0.611,0.491 -1.374,0.737 -2.285,0.737 -0.913,0 -1.675,-0.246 -2.286,-0.737 -0.612,-0.492 -0.918,-1.229 -0.918,-2.215 V 129.76 c 0,-0.912 0.306,-1.62 0.918,-2.124 0.611,-0.505 1.35,-0.757 2.214,-0.757 0.888,0 1.602,0.24 2.142,0.721 0.54,0.479 0.811,1.151 0.811,2.016 v 0.685 c 0.384,-1.057 1.014,-1.872 1.89,-2.448 0.875,-0.576 1.793,-0.889 2.754,-0.937 l 0.504,-0.036 c 0.814,-0.071 1.462,0.115 1.942,0.558 z"
   id="path140"
   inkscape:connector-curvature="0" />
	<path
   d="m 287.001,142.757 c 0,0.841 -0.324,1.465 -0.973,1.872 -0.647,0.408 -1.571,0.576 -2.771,0.504 l -1.008,-0.071 c -2.16,-0.167 -3.798,-0.822 -4.914,-1.962 -1.116,-1.141 -1.674,-2.73 -1.674,-4.771 v -6.372 h -1.044 c -1.921,0 -2.881,-0.792 -2.881,-2.376 0,-1.56 0.959,-2.34 2.881,-2.34 h 1.044 v -2.34 c 0,-0.912 0.288,-1.638 0.863,-2.178 0.576,-0.54 1.355,-0.811 2.341,-0.811 0.983,0 1.764,0.271 2.34,0.811 0.575,0.54 0.863,1.266 0.863,2.178 v 2.34 h 1.98 c 1.92,0 2.88,0.78 2.88,2.34 0,1.584 -0.96,2.376 -2.88,2.376 h -1.98 v 6.912 c 0,0.456 0.139,0.84 0.414,1.152 0.275,0.312 0.63,0.479 1.062,0.504 l 1.044,0.072 c 1.609,0.096 2.413,0.816 2.413,2.16 z"
   id="path142"
   inkscape:connector-curvature="0" />
	<path
   d="m 298.773,135.269 c 0,-1.656 0.996,-2.484 2.988,-2.484 h 6.768 c 1.009,0 1.759,0.216 2.25,0.648 0.492,0.432 0.738,1.044 0.738,1.836 0,0.792 -0.246,1.41 -0.738,1.854 -0.491,0.444 -1.241,0.666 -2.25,0.666 h -6.768 c -1.992,0 -2.988,-0.84 -2.988,-2.52 z"
   id="path144"
   inkscape:connector-curvature="0" />
	<path
   d="m 31.674,187.847 c -1.645,-0.419 -2.994,-1.001 -4.05,-1.746 -0.409,-0.312 -0.702,-0.637 -0.882,-0.973 -0.181,-0.336 -0.271,-0.768 -0.271,-1.296 0,-0.72 0.216,-1.344 0.648,-1.872 0.432,-0.527 0.936,-0.792 1.512,-0.792 0.312,0 0.612,0.048 0.9,0.145 0.287,0.096 0.647,0.275 1.079,0.54 0.984,0.552 1.963,0.947 2.935,1.188 0.972,0.241 2.07,0.36 3.294,0.36 1.416,0 2.49,-0.21 3.222,-0.63 0.732,-0.42 1.099,-1.038 1.099,-1.854 0,-0.552 -0.343,-1.025 -1.026,-1.422 -0.684,-0.396 -1.986,-0.786 -3.906,-1.17 -2.376,-0.504 -4.235,-1.104 -5.58,-1.8 -1.345,-0.696 -2.286,-1.519 -2.826,-2.466 -0.539,-0.948 -0.81,-2.094 -0.81,-3.438 0,-1.535 0.456,-2.928 1.368,-4.176 0.912,-1.248 2.166,-2.226 3.762,-2.934 1.596,-0.708 3.391,-1.062 5.382,-1.062 1.751,0 3.312,0.192 4.681,0.576 1.367,0.384 2.615,0.983 3.743,1.8 0.433,0.312 0.738,0.643 0.919,0.99 0.18,0.348 0.27,0.773 0.27,1.277 0,0.721 -0.21,1.345 -0.63,1.872 -0.42,0.528 -0.918,0.792 -1.494,0.792 -0.312,0 -0.6,-0.042 -0.864,-0.126 -0.264,-0.084 -0.636,-0.27 -1.115,-0.558 -0.12,-0.072 -0.463,-0.257 -1.026,-0.558 -0.564,-0.301 -1.224,-0.54 -1.98,-0.721 -0.756,-0.18 -1.579,-0.27 -2.466,-0.27 -1.224,0 -2.208,0.233 -2.952,0.702 -0.744,0.468 -1.115,1.086 -1.115,1.854 0,0.456 0.132,0.828 0.396,1.116 0.264,0.288 0.756,0.57 1.476,0.846 0.721,0.276 1.788,0.559 3.204,0.847 2.305,0.504 4.116,1.109 5.437,1.817 1.318,0.708 2.255,1.53 2.808,2.466 0.552,0.937 0.828,2.04 0.828,3.312 0,1.584 -0.444,2.981 -1.332,4.194 -0.888,1.212 -2.13,2.147 -3.726,2.808 -1.597,0.66 -3.45,0.99 -5.562,0.99 -1.924,0.002 -3.706,-0.208 -5.35,-0.628 z"
   id="path146"
   inkscape:connector-curvature="0" />
	<path
   d="m 66.702,183.113 c 0.348,0.432 0.521,0.996 0.521,1.692 0,0.96 -0.468,1.691 -1.404,2.195 -0.815,0.408 -1.781,0.75 -2.897,1.026 -1.116,0.275 -2.143,0.414 -3.078,0.414 -1.968,0 -3.685,-0.372 -5.148,-1.116 -1.463,-0.744 -2.592,-1.812 -3.384,-3.204 -0.792,-1.392 -1.188,-3.023 -1.188,-4.896 0,-1.775 0.378,-3.366 1.134,-4.771 0.756,-1.403 1.812,-2.496 3.168,-3.275 1.355,-0.779 2.885,-1.17 4.59,-1.17 1.656,0 3.108,0.359 4.356,1.079 1.248,0.721 2.214,1.74 2.897,3.061 0.685,1.32 1.026,2.868 1.026,4.644 0,0.553 -0.126,0.979 -0.378,1.278 -0.252,0.299 -0.618,0.45 -1.099,0.45 h -9.504 c 0.168,1.151 0.54,1.979 1.116,2.483 0.576,0.504 1.428,0.757 2.556,0.757 0.601,0 1.152,-0.066 1.656,-0.198 0.504,-0.132 1.068,-0.318 1.692,-0.559 0.359,-0.144 0.714,-0.27 1.062,-0.378 0.349,-0.107 0.666,-0.162 0.954,-0.162 0.553,0.002 1.004,0.218 1.352,0.65 z m -9.522,-7.974 c -0.504,0.54 -0.805,1.326 -0.9,2.357 h 5.652 c -0.144,-2.111 -1.057,-3.168 -2.736,-3.168 -0.841,0.001 -1.512,0.271 -2.016,0.811 z"
   id="path148"
   inkscape:connector-curvature="0" />
	<path
   d="m 71.129,187.631 c -0.612,-0.491 -0.918,-1.229 -0.918,-2.214 v -19.836 c 0,-0.983 0.306,-1.728 0.918,-2.231 0.612,-0.503 1.374,-0.756 2.286,-0.756 0.912,0 1.674,0.252 2.286,0.756 0.611,0.504 0.918,1.249 0.918,2.231 v 19.836 c 0,0.984 -0.307,1.723 -0.918,2.214 -0.612,0.492 -1.374,0.738 -2.286,0.738 -0.912,0 -1.674,-0.246 -2.286,-0.738 z"
   id="path150"
   inkscape:connector-curvature="0" />
	<path
   d="m 96.131,171.125 c 1.176,0.744 2.094,1.807 2.754,3.187 0.66,1.38 0.99,2.981 0.99,4.806 0,1.825 -0.33,3.444 -0.99,4.86 -0.661,1.416 -1.584,2.514 -2.772,3.294 -1.188,0.78 -2.537,1.17 -4.05,1.17 -1.176,0 -2.25,-0.24 -3.222,-0.72 -0.972,-0.48 -1.71,-1.141 -2.214,-1.98 -0.072,0.816 -0.391,1.458 -0.954,1.926 -0.564,0.469 -1.302,0.702 -2.214,0.702 -0.96,0 -1.723,-0.27 -2.286,-0.81 -0.564,-0.54 -0.846,-1.253 -0.846,-2.143 v -19.943 c 0,-0.841 0.3,-1.53 0.899,-2.07 0.601,-0.54 1.393,-0.81 2.376,-0.81 0.937,0 1.692,0.252 2.269,0.756 0.575,0.504 0.863,1.176 0.863,2.016 v 7.164 c 0.528,-0.768 1.267,-1.38 2.215,-1.836 0.947,-0.456 1.984,-0.685 3.113,-0.685 1.537,0 2.893,0.372 4.069,1.116 z m -3.492,11.358 c 0.6,-0.78 0.9,-1.902 0.9,-3.366 0,-1.392 -0.294,-2.459 -0.882,-3.204 -0.589,-0.743 -1.436,-1.116 -2.538,-1.116 -1.128,0 -1.993,0.378 -2.593,1.135 -0.6,0.756 -0.899,1.842 -0.899,3.258 0,1.439 0.3,2.544 0.899,3.312 0.601,0.769 1.452,1.152 2.557,1.152 1.104,-0.001 1.956,-0.391 2.556,-1.171 z"
   id="path152"
   inkscape:connector-curvature="0" />
	<path
   d="m 105.743,188.081 c -1.104,-0.24 -2.076,-0.624 -2.916,-1.151 -0.336,-0.167 -0.601,-0.456 -0.792,-0.864 -0.192,-0.408 -0.288,-0.864 -0.288,-1.368 0,-0.648 0.174,-1.182 0.521,-1.602 0.349,-0.42 0.786,-0.631 1.314,-0.631 0.359,0 0.695,0.042 1.008,0.126 0.312,0.084 0.696,0.223 1.152,0.414 0.768,0.265 1.444,0.469 2.033,0.612 0.589,0.145 1.339,0.216 2.25,0.216 0.648,0 1.158,-0.09 1.53,-0.27 0.372,-0.181 0.559,-0.438 0.559,-0.774 0,-0.264 -0.091,-0.468 -0.271,-0.611 -0.18,-0.145 -0.522,-0.282 -1.026,-0.414 -0.504,-0.132 -1.355,-0.318 -2.556,-0.559 -2.137,-0.408 -3.678,-1.025 -4.626,-1.854 -0.949,-0.828 -1.422,-1.998 -1.422,-3.511 0,-1.104 0.342,-2.1 1.026,-2.987 0.684,-0.889 1.625,-1.584 2.825,-2.088 1.2,-0.504 2.544,-0.757 4.032,-0.757 1.08,0 2.129,0.133 3.15,0.396 1.02,0.265 1.926,0.636 2.718,1.116 0.744,0.432 1.116,1.128 1.116,2.088 0,0.672 -0.181,1.236 -0.54,1.691 -0.36,0.456 -0.805,0.685 -1.332,0.685 -0.624,0 -1.368,-0.204 -2.232,-0.612 -0.576,-0.264 -1.086,-0.462 -1.529,-0.594 -0.444,-0.132 -0.967,-0.198 -1.566,-0.198 -0.601,0 -1.068,0.09 -1.404,0.271 -0.336,0.18 -0.504,0.438 -0.504,0.773 0,0.385 0.234,0.685 0.702,0.9 0.468,0.215 1.397,0.456 2.79,0.72 2.328,0.409 3.972,1.026 4.932,1.854 0.96,0.828 1.44,2.021 1.44,3.582 0,1.752 -0.727,3.149 -2.178,4.193 -1.453,1.044 -3.402,1.566 -5.851,1.566 -1.605,0.002 -2.961,-0.119 -4.065,-0.358 z"
   id="path154"
   inkscape:connector-curvature="0" />
	<path
   d="m 133.175,185.957 c 0,0.84 -0.324,1.464 -0.972,1.872 -0.648,0.408 -1.572,0.576 -2.772,0.504 l -1.008,-0.071 c -2.16,-0.167 -3.798,-0.822 -4.914,-1.963 -1.116,-1.14 -1.674,-2.729 -1.674,-4.77 v -6.372 h -1.044 c -1.92,0 -2.88,-0.792 -2.88,-2.376 0,-1.56 0.959,-2.34 2.88,-2.34 h 1.044 v -2.34 c 0,-0.912 0.288,-1.639 0.864,-2.179 0.575,-0.54 1.354,-0.81 2.34,-0.81 0.983,0 1.764,0.27 2.34,0.81 0.576,0.54 0.864,1.267 0.864,2.179 v 2.34 h 1.979 c 1.92,0 2.88,0.78 2.88,2.34 0,1.584 -0.96,2.376 -2.88,2.376 h -1.979 v 6.912 c 0,0.456 0.138,0.84 0.414,1.152 0.274,0.312 0.63,0.479 1.062,0.504 l 1.044,0.071 c 1.608,0.097 2.412,0.817 2.412,2.161 z"
   id="path156"
   inkscape:connector-curvature="0" />
	<path
   d="m 151.535,171.899 c 1.008,1.26 1.512,3.174 1.512,5.742 v 7.775 c 0,0.912 -0.288,1.632 -0.864,2.16 -0.576,0.528 -1.355,0.792 -2.34,0.792 -0.985,0 -1.764,-0.264 -2.34,-0.792 -0.576,-0.527 -0.864,-1.248 -0.864,-2.16 v -7.92 c 0,-1.728 -0.744,-2.592 -2.231,-2.592 -0.961,0 -1.724,0.306 -2.286,0.918 -0.564,0.612 -0.847,1.435 -0.847,2.466 v 7.128 c 0,0.912 -0.288,1.632 -0.863,2.16 -0.576,0.528 -1.356,0.792 -2.341,0.792 -0.983,0 -1.764,-0.264 -2.34,-0.792 -0.576,-0.526 -0.863,-1.248 -0.863,-2.16 v -19.943 c 0,-0.841 0.3,-1.53 0.899,-2.07 0.601,-0.54 1.393,-0.81 2.376,-0.81 0.937,0 1.692,0.252 2.269,0.756 0.575,0.504 0.863,1.176 0.863,2.016 v 7.2 c 0.648,-0.84 1.452,-1.477 2.412,-1.908 0.96,-0.431 2.04,-0.647 3.24,-0.647 2.064,-0.001 3.6,0.629 4.608,1.889 z"
   id="path158"
   inkscape:connector-curvature="0" />
	<path
   d="m 157.277,166.715 c -0.636,-0.562 -0.954,-1.313 -0.954,-2.25 0,-0.936 0.318,-1.68 0.954,-2.231 0.637,-0.552 1.494,-0.828 2.574,-0.828 1.057,0 1.908,0.276 2.557,0.828 0.647,0.552 0.972,1.296 0.972,2.231 0,0.937 -0.318,1.688 -0.954,2.25 -0.636,0.564 -1.494,0.847 -2.574,0.847 -1.08,0 -1.939,-0.283 -2.575,-0.847 z m 0.288,20.916 c -0.611,-0.491 -0.918,-1.229 -0.918,-2.214 v -12.384 c 0,-0.984 0.307,-1.722 0.918,-2.214 0.612,-0.492 1.374,-0.738 2.286,-0.738 0.912,0 1.674,0.246 2.286,0.738 0.612,0.492 0.918,1.229 0.918,2.214 v 12.384 c 0,0.984 -0.306,1.723 -0.918,2.214 -0.612,0.492 -1.374,0.738 -2.286,0.738 -0.913,0 -1.674,-0.246 -2.286,-0.738 z"
   id="path160"
   inkscape:connector-curvature="0" />
	<path
   d="m 167.681,187.631 c -0.612,-0.491 -0.918,-1.229 -0.918,-2.214 v -19.836 c 0,-0.983 0.306,-1.728 0.918,-2.231 0.612,-0.503 1.374,-0.756 2.286,-0.756 0.912,0 1.674,0.252 2.286,0.756 0.611,0.504 0.918,1.249 0.918,2.231 v 19.836 c 0,0.984 -0.307,1.723 -0.918,2.214 -0.612,0.492 -1.374,0.738 -2.286,0.738 -0.913,0 -1.675,-0.246 -2.286,-0.738 z"
   id="path162"
   inkscape:connector-curvature="0" />
	<path
   d="m 185.356,168.155 c -0.348,0.468 -0.521,1.086 -0.521,1.854 v 0.433 h 1.979 c 1.92,0 2.88,0.78 2.88,2.34 0,1.584 -0.96,2.376 -2.88,2.376 h -1.979 v 10.188 c 0,0.983 -0.307,1.728 -0.918,2.231 -0.612,0.504 -1.375,0.756 -2.286,0.756 -0.913,0 -1.674,-0.252 -2.286,-0.756 -0.612,-0.504 -0.918,-1.248 -0.918,-2.231 v -10.188 h -1.044 c -1.92,0 -2.88,-0.792 -2.88,-2.376 0,-1.56 0.959,-2.34 2.88,-2.34 h 1.044 c 0.048,-2.304 0.738,-4.11 2.07,-5.418 1.332,-1.309 3.137,-2.046 5.418,-2.214 l 0.936,-0.072 c 0.191,-0.023 0.443,-0.036 0.756,-0.036 1.032,0 1.776,0.192 2.232,0.576 0.456,0.384 0.684,0.936 0.684,1.656 0,0.72 -0.216,1.277 -0.647,1.674 -0.433,0.396 -1.021,0.618 -1.765,0.666 l -0.936,0.072 c -0.864,0.071 -1.471,0.341 -1.819,0.809 z"
   id="path164"
   inkscape:connector-curvature="0" />
	<path
   d="m 206.632,183.113 c 0.348,0.432 0.521,0.996 0.521,1.692 0,0.96 -0.468,1.691 -1.403,2.195 -0.816,0.408 -1.782,0.75 -2.898,1.026 -1.116,0.275 -2.142,0.414 -3.078,0.414 -1.968,0 -3.685,-0.372 -5.147,-1.116 -1.464,-0.744 -2.592,-1.812 -3.384,-3.204 -0.792,-1.392 -1.188,-3.023 -1.188,-4.896 0,-1.775 0.378,-3.366 1.134,-4.771 0.756,-1.403 1.812,-2.496 3.168,-3.275 1.356,-0.779 2.886,-1.17 4.59,-1.17 1.656,0 3.108,0.359 4.356,1.079 1.248,0.721 2.214,1.74 2.898,3.061 0.684,1.32 1.025,2.868 1.025,4.644 0,0.553 -0.126,0.979 -0.378,1.278 -0.252,0.299 -0.618,0.45 -1.098,0.45 h -9.504 c 0.168,1.151 0.54,1.979 1.115,2.483 0.576,0.504 1.429,0.757 2.557,0.757 0.6,0 1.151,-0.066 1.656,-0.198 0.504,-0.132 1.067,-0.318 1.691,-0.559 0.36,-0.144 0.714,-0.27 1.062,-0.378 0.348,-0.107 0.666,-0.162 0.953,-0.162 0.554,0.002 1.004,0.218 1.352,0.65 z m -9.522,-7.974 c -0.504,0.54 -0.805,1.326 -0.899,2.357 h 5.651 c -0.144,-2.111 -1.057,-3.168 -2.735,-3.168 -0.841,0.001 -1.513,0.271 -2.017,0.811 z"
   id="path166"
   inkscape:connector-curvature="0" />
	<path
   d="m 228.178,170.891 c 0.576,0.54 0.864,1.254 0.864,2.142 v 12.96 c 0,2.928 -0.882,5.148 -2.646,6.66 -1.764,1.512 -4.351,2.268 -7.758,2.268 -1.32,0 -2.568,-0.121 -3.744,-0.359 -1.176,-0.24 -2.172,-0.588 -2.988,-1.044 -0.432,-0.24 -0.773,-0.553 -1.025,-0.937 -0.252,-0.384 -0.378,-0.815 -0.378,-1.296 0,-0.696 0.174,-1.26 0.521,-1.691 0.349,-0.433 0.798,-0.648 1.351,-0.648 0.432,0 1.211,0.18 2.34,0.54 0.744,0.24 1.404,0.426 1.979,0.558 0.576,0.131 1.164,0.198 1.765,0.198 1.464,0 2.538,-0.306 3.222,-0.918 0.684,-0.612 1.026,-1.578 1.026,-2.898 v -1.367 c -0.528,0.792 -1.284,1.422 -2.269,1.89 -0.983,0.468 -2.052,0.702 -3.204,0.702 -1.536,0 -2.903,-0.36 -4.104,-1.08 -1.201,-0.72 -2.136,-1.746 -2.809,-3.078 -0.672,-1.332 -1.008,-2.874 -1.008,-4.626 0,-1.751 0.336,-3.299 1.008,-4.644 0.673,-1.345 1.608,-2.382 2.809,-3.114 1.201,-0.732 2.567,-1.099 4.104,-1.099 1.177,0 2.256,0.24 3.24,0.721 0.984,0.479 1.74,1.14 2.269,1.979 0.048,-0.815 0.354,-1.458 0.918,-1.926 0.562,-0.468 1.301,-0.702 2.214,-0.702 0.958,-0.001 1.727,0.269 2.303,0.809 z m -6.372,10.926 c 0.624,-0.696 0.937,-1.68 0.937,-2.952 0,-1.271 -0.312,-2.268 -0.937,-2.988 -0.625,-0.72 -1.5,-1.08 -2.628,-1.08 -1.104,0 -1.968,0.354 -2.592,1.062 -0.625,0.708 -0.937,1.71 -0.937,3.006 0,1.248 0.318,2.227 0.954,2.934 0.636,0.708 1.494,1.062 2.574,1.062 1.129,0 2.005,-0.348 2.629,-1.044 z"
   id="path168"
   inkscape:connector-curvature="0" />
	<path
   d="m 245.962,170.639 c 0.479,0.443 0.72,1.098 0.72,1.962 0,0.96 -0.222,1.655 -0.666,2.088 -0.444,0.432 -1.242,0.708 -2.394,0.828 l -1.08,0.107 c -1.2,0.145 -2.059,0.522 -2.574,1.135 -0.517,0.611 -0.774,1.445 -0.774,2.502 v 6.155 c 0,0.984 -0.306,1.723 -0.918,2.214 -0.611,0.492 -1.374,0.738 -2.285,0.738 -0.913,0 -1.675,-0.246 -2.286,-0.738 -0.612,-0.491 -0.918,-1.229 -0.918,-2.214 V 172.96 c 0,-0.912 0.306,-1.62 0.918,-2.124 0.611,-0.504 1.35,-0.756 2.214,-0.756 0.888,0 1.602,0.24 2.142,0.721 0.54,0.479 0.811,1.151 0.811,2.016 v 0.684 c 0.384,-1.056 1.014,-1.872 1.89,-2.447 0.875,-0.576 1.793,-0.889 2.754,-0.937 l 0.504,-0.036 c 0.813,-0.072 1.461,0.114 1.942,0.558 z"
   id="path170"
   inkscape:connector-curvature="0" />
	<path
   d="m 264.861,170.873 c 0.576,0.528 0.864,1.248 0.864,2.16 v 12.456 c 0,0.84 -0.3,1.53 -0.899,2.07 -0.601,0.54 -1.381,0.81 -2.341,0.81 -0.863,0 -1.571,-0.233 -2.124,-0.702 -0.552,-0.468 -0.84,-1.098 -0.863,-1.89 -0.553,0.864 -1.254,1.524 -2.106,1.979 -0.852,0.456 -1.831,0.685 -2.934,0.685 -2.28,0 -3.973,-0.63 -5.076,-1.89 -1.104,-1.261 -1.656,-3.174 -1.656,-5.742 v -7.776 c 0,-0.912 0.288,-1.632 0.864,-2.16 0.576,-0.527 1.355,-0.792 2.34,-0.792 0.985,0 1.764,0.265 2.34,0.792 0.576,0.528 0.864,1.248 0.864,2.16 v 7.92 c 0,1.729 0.743,2.592 2.231,2.592 0.864,0 1.571,-0.312 2.124,-0.936 0.553,-0.624 0.828,-1.44 0.828,-2.448 v -7.128 c 0,-0.912 0.288,-1.632 0.864,-2.16 0.576,-0.527 1.355,-0.792 2.34,-0.792 0.985,0 1.765,0.264 2.34,0.792 z"
   id="path172"
   inkscape:connector-curvature="0" />
	<path
   d="m 285.255,171.179 c 1.188,0.779 2.111,1.878 2.771,3.294 0.66,1.417 0.99,3.037 0.99,4.859 0,1.824 -0.33,3.426 -0.99,4.807 -0.66,1.38 -1.579,2.441 -2.754,3.186 -1.176,0.744 -2.531,1.116 -4.067,1.116 -1.128,0 -2.166,-0.229 -3.114,-0.685 -0.949,-0.455 -1.688,-1.067 -2.214,-1.836 v 6.12 c 0,0.84 -0.288,1.513 -0.864,2.017 -0.576,0.504 -1.332,0.756 -2.268,0.756 -0.984,0 -1.776,-0.271 -2.376,-0.811 -0.601,-0.54 -0.9,-1.229 -0.9,-2.069 v -18.9 c 0,-0.888 0.282,-1.602 0.846,-2.142 0.564,-0.54 1.326,-0.811 2.286,-0.811 0.912,0 1.65,0.24 2.214,0.721 0.564,0.479 0.882,1.115 0.954,1.907 0.504,-0.84 1.242,-1.5 2.214,-1.979 0.973,-0.48 2.045,-0.72 3.223,-0.72 1.511,0 2.861,0.39 4.049,1.17 z m -3.456,11.358 c 0.588,-0.744 0.882,-1.812 0.882,-3.204 0,-1.464 -0.3,-2.586 -0.9,-3.366 -0.6,-0.779 -1.452,-1.17 -2.556,-1.17 -1.104,0 -1.957,0.385 -2.556,1.152 -0.601,0.77 -0.9,1.872 -0.9,3.312 0,1.417 0.3,2.502 0.9,3.258 0.6,0.756 1.464,1.134 2.592,1.134 1.104,0 1.95,-0.372 2.538,-1.116 z"
   id="path174"
   inkscape:connector-curvature="0" />
	<path
   d="m 307.755,171.179 c 1.188,0.779 2.111,1.878 2.771,3.294 0.66,1.417 0.99,3.037 0.99,4.859 0,1.824 -0.33,3.426 -0.99,4.807 -0.66,1.38 -1.579,2.441 -2.754,3.186 -1.176,0.744 -2.531,1.116 -4.067,1.116 -1.128,0 -2.166,-0.229 -3.114,-0.685 -0.949,-0.455 -1.688,-1.067 -2.214,-1.836 v 6.12 c 0,0.84 -0.288,1.513 -0.864,2.017 -0.576,0.504 -1.332,0.756 -2.268,0.756 -0.984,0 -1.776,-0.271 -2.376,-0.811 -0.601,-0.54 -0.9,-1.229 -0.9,-2.069 v -18.9 c 0,-0.888 0.282,-1.602 0.846,-2.142 0.564,-0.54 1.326,-0.811 2.286,-0.811 0.912,0 1.65,0.24 2.214,0.721 0.564,0.479 0.882,1.115 0.954,1.907 0.504,-0.84 1.242,-1.5 2.214,-1.979 0.973,-0.48 2.045,-0.72 3.223,-0.72 1.511,0 2.861,0.39 4.049,1.17 z m -3.456,11.358 c 0.588,-0.744 0.882,-1.812 0.882,-3.204 0,-1.464 -0.3,-2.586 -0.9,-3.366 -0.6,-0.779 -1.452,-1.17 -2.556,-1.17 -1.104,0 -1.957,0.385 -2.556,1.152 -0.601,0.77 -0.9,1.872 -0.9,3.312 0,1.417 0.3,2.502 0.9,3.258 0.6,0.756 1.464,1.134 2.592,1.134 1.104,0 1.95,-0.372 2.538,-1.116 z"
   id="path176"
   inkscape:connector-curvature="0" />
	<path
   d="m 330.219,183.113 c 0.348,0.432 0.522,0.996 0.522,1.692 0,0.96 -0.469,1.691 -1.404,2.195 -0.816,0.408 -1.782,0.75 -2.898,1.026 -1.116,0.275 -2.142,0.414 -3.078,0.414 -1.968,0 -3.685,-0.372 -5.147,-1.116 -1.464,-0.744 -2.592,-1.812 -3.384,-3.204 -0.792,-1.392 -1.188,-3.023 -1.188,-4.896 0,-1.775 0.378,-3.366 1.134,-4.771 0.756,-1.403 1.812,-2.496 3.168,-3.275 1.356,-0.779 2.886,-1.17 4.591,-1.17 1.655,0 3.107,0.359 4.355,1.079 1.248,0.721 2.214,1.74 2.898,3.061 0.684,1.32 1.025,2.868 1.025,4.644 0,0.553 -0.126,0.979 -0.378,1.278 -0.252,0.299 -0.618,0.45 -1.098,0.45 h -9.504 c 0.168,1.151 0.54,1.979 1.116,2.483 0.575,0.504 1.428,0.757 2.556,0.757 0.6,0 1.152,-0.066 1.656,-0.198 0.504,-0.132 1.067,-0.318 1.691,-0.559 0.36,-0.144 0.714,-0.27 1.062,-0.378 0.348,-0.107 0.666,-0.162 0.954,-0.162 0.553,0.002 1.003,0.218 1.351,0.65 z m -9.522,-7.974 c -0.504,0.54 -0.805,1.326 -0.899,2.357 h 5.652 c -0.145,-2.111 -1.058,-3.168 -2.736,-3.168 -0.841,0.001 -1.513,0.271 -2.017,0.811 z"
   id="path178"
   inkscape:connector-curvature="0" />
	<path
   d="m 352.503,168.155 c -0.349,0.468 -0.522,1.086 -0.522,1.854 v 0.433 h 1.98 c 1.92,0 2.88,0.78 2.88,2.34 0,1.584 -0.96,2.376 -2.88,2.376 h -1.98 v 10.188 c 0,0.983 -0.306,1.728 -0.918,2.231 -0.611,0.504 -1.375,0.756 -2.286,0.756 -0.913,0 -1.674,-0.252 -2.286,-0.756 -0.611,-0.504 -0.918,-1.248 -0.918,-2.231 v -10.188 h -1.044 c -1.92,0 -2.88,-0.792 -2.88,-2.376 0,-1.56 0.959,-2.34 2.88,-2.34 h 1.044 c 0.049,-2.304 0.738,-4.11 2.07,-5.418 1.332,-1.309 3.137,-2.046 5.418,-2.214 l 0.937,-0.072 c 0.19,-0.023 0.442,-0.036 0.756,-0.036 1.032,0 1.775,0.192 2.231,0.576 0.456,0.384 0.685,0.936 0.685,1.656 0,0.72 -0.216,1.277 -0.648,1.674 -0.432,0.396 -1.021,0.618 -1.764,0.666 l -0.937,0.072 c -0.864,0.071 -1.47,0.341 -1.818,0.809 z"
   id="path180"
   inkscape:connector-curvature="0" />
	<path
   d="m 375.2,170.873 c 0.575,0.528 0.863,1.248 0.863,2.16 v 12.456 c 0,0.84 -0.3,1.53 -0.899,2.07 -0.601,0.54 -1.38,0.81 -2.34,0.81 -0.864,0 -1.572,-0.233 -2.124,-0.702 -0.553,-0.468 -0.841,-1.098 -0.864,-1.89 -0.552,0.864 -1.254,1.524 -2.106,1.979 -0.852,0.456 -1.831,0.685 -2.934,0.685 -2.28,0 -3.972,-0.63 -5.076,-1.89 -1.104,-1.261 -1.656,-3.174 -1.656,-5.742 v -7.776 c 0,-0.912 0.288,-1.632 0.864,-2.16 0.576,-0.527 1.356,-0.792 2.34,-0.792 0.984,0 1.765,0.265 2.34,0.792 0.576,0.528 0.864,1.248 0.864,2.16 v 7.92 c 0,1.729 0.743,2.592 2.232,2.592 0.863,0 1.57,-0.312 2.124,-0.936 0.552,-0.624 0.828,-1.44 0.828,-2.448 v -7.128 c 0,-0.912 0.287,-1.632 0.863,-2.16 0.576,-0.527 1.355,-0.792 2.34,-0.792 0.985,0 1.766,0.264 2.341,0.792 z m -13.86,-4.32 c -0.552,-0.527 -0.828,-1.225 -0.828,-2.089 0,-0.863 0.276,-1.554 0.828,-2.069 0.552,-0.517 1.284,-0.774 2.196,-0.774 0.911,0 1.648,0.258 2.214,0.774 0.562,0.516 0.846,1.206 0.846,2.069 0,0.864 -0.282,1.562 -0.846,2.089 -0.564,0.527 -1.303,0.792 -2.214,0.792 -0.912,0 -1.644,-0.264 -2.196,-0.792 z m 7.128,0 c -0.552,-0.527 -0.828,-1.225 -0.828,-2.089 0,-0.863 0.275,-1.554 0.828,-2.069 0.552,-0.517 1.284,-0.774 2.196,-0.774 0.888,0 1.613,0.258 2.178,0.774 0.563,0.516 0.846,1.206 0.846,2.069 0,0.864 -0.275,1.562 -0.828,2.089 -0.552,0.527 -1.283,0.792 -2.195,0.792 -0.912,0 -1.645,-0.264 -2.197,-0.792 z"
   id="path182"
   inkscape:connector-curvature="0" />
	<path
   d="m 392.984,170.639 c 0.48,0.443 0.721,1.098 0.721,1.962 0,0.96 -0.223,1.655 -0.666,2.088 -0.444,0.432 -1.242,0.708 -2.395,0.828 l -1.08,0.107 c -1.2,0.145 -2.058,0.522 -2.573,1.135 -0.518,0.611 -0.774,1.445 -0.774,2.502 v 6.155 c 0,0.984 -0.306,1.723 -0.918,2.214 -0.612,0.492 -1.374,0.738 -2.286,0.738 -0.913,0 -1.674,-0.246 -2.286,-0.738 -0.612,-0.491 -0.918,-1.229 -0.918,-2.214 V 172.96 c 0,-0.912 0.306,-1.62 0.918,-2.124 0.612,-0.504 1.351,-0.756 2.214,-0.756 0.889,0 1.603,0.24 2.143,0.721 0.54,0.479 0.81,1.151 0.81,2.016 v 0.684 c 0.384,-1.056 1.014,-1.872 1.891,-2.447 0.875,-0.576 1.793,-0.889 2.754,-0.937 l 0.504,-0.036 c 0.812,-0.072 1.46,0.114 1.941,0.558 z"
   id="path184"
   inkscape:connector-curvature="0" />
	<path
   d="m 418.076,185.957 c 0,0.84 -0.324,1.464 -0.973,1.872 -0.647,0.408 -1.571,0.576 -2.771,0.504 l -1.008,-0.071 c -2.16,-0.167 -3.799,-0.822 -4.914,-1.963 -1.116,-1.14 -1.675,-2.729 -1.675,-4.77 v -6.372 h -1.044 c -1.92,0 -2.88,-0.792 -2.88,-2.376 0,-1.56 0.959,-2.34 2.88,-2.34 h 1.044 v -2.34 c 0,-0.912 0.288,-1.639 0.864,-2.179 0.576,-0.54 1.355,-0.81 2.34,-0.81 0.985,0 1.765,0.27 2.34,0.81 0.576,0.54 0.864,1.267 0.864,2.179 v 2.34 h 1.98 c 1.92,0 2.88,0.78 2.88,2.34 0,1.584 -0.96,2.376 -2.88,2.376 h -1.98 v 6.912 c 0,0.456 0.139,0.84 0.414,1.152 0.275,0.312 0.63,0.479 1.062,0.504 l 1.044,0.071 c 1.608,0.097 2.413,0.817 2.413,2.161 z"
   id="path186"
   inkscape:connector-curvature="0" />
	<path
   d="m 432.944,170.639 c 0.479,0.443 0.72,1.098 0.72,1.962 0,0.96 -0.222,1.655 -0.666,2.088 -0.443,0.432 -1.24,0.708 -2.394,0.828 l -1.08,0.107 c -1.2,0.145 -2.059,0.522 -2.574,1.135 -0.516,0.611 -0.773,1.445 -0.773,2.502 v 6.155 c 0,0.984 -0.307,1.723 -0.918,2.214 -0.612,0.492 -1.374,0.738 -2.286,0.738 -0.913,0 -1.674,-0.246 -2.286,-0.738 -0.611,-0.491 -0.918,-1.229 -0.918,-2.214 V 172.96 c 0,-0.912 0.307,-1.62 0.918,-2.124 0.612,-0.504 1.35,-0.756 2.214,-0.756 0.888,0 1.603,0.24 2.142,0.721 0.54,0.479 0.811,1.151 0.811,2.016 v 0.684 c 0.384,-1.056 1.014,-1.872 1.89,-2.447 0.876,-0.576 1.794,-0.889 2.754,-0.937 l 0.505,-0.036 c 0.813,-0.072 1.46,0.114 1.941,0.558 z"
   id="path188"
   inkscape:connector-curvature="0" />
	<path
   d="m 449.197,171.971 c 1.31,1.309 1.962,3.294 1.962,5.958 v 7.523 c 0,0.913 -0.27,1.626 -0.81,2.143 -0.54,0.517 -1.29,0.773 -2.25,0.773 -0.841,0 -1.53,-0.239 -2.07,-0.72 -0.54,-0.481 -0.834,-1.128 -0.882,-1.944 -0.336,0.864 -0.899,1.537 -1.691,2.017 -0.792,0.48 -1.74,0.72 -2.845,0.72 -1.224,0 -2.328,-0.247 -3.312,-0.738 -0.984,-0.491 -1.76,-1.175 -2.322,-2.052 -0.564,-0.876 -0.846,-1.866 -0.846,-2.97 0,-1.271 0.329,-2.286 0.989,-3.042 0.659,-0.757 1.71,-1.302 3.149,-1.639 1.439,-0.336 3.384,-0.504 5.832,-0.504 h 0.972 v -0.432 c 0,-0.84 -0.191,-1.446 -0.575,-1.818 -0.385,-0.372 -1.031,-0.558 -1.943,-0.558 -0.984,0 -2.425,0.336 -4.32,1.008 -0.552,0.192 -1.021,0.288 -1.403,0.288 -0.601,0 -1.08,-0.216 -1.439,-0.648 -0.36,-0.432 -0.54,-0.996 -0.54,-1.691 0,-0.528 0.107,-0.96 0.324,-1.296 0.216,-0.335 0.562,-0.636 1.044,-0.9 0.84,-0.432 1.896,-0.779 3.168,-1.044 1.271,-0.264 2.52,-0.396 3.744,-0.396 2.733,0 4.756,0.654 6.064,1.962 z m -4.95,11.268 c 0.553,-0.612 0.827,-1.398 0.827,-2.358 v -0.432 H 444.5 c -1.536,0 -2.629,0.139 -3.276,0.414 -0.648,0.276 -0.972,0.738 -0.972,1.386 0,0.552 0.174,1.008 0.521,1.368 0.348,0.36 0.798,0.54 1.351,0.54 0.863,0 1.571,-0.306 2.123,-0.918 z"
   id="path190"
   inkscape:connector-curvature="0" />
	<path
   d="m 471.39,171.899 c 1.031,1.26 1.548,3.174 1.548,5.742 v 7.775 c 0,0.912 -0.288,1.632 -0.863,2.16 -0.576,0.528 -1.355,0.792 -2.341,0.792 -0.986,0 -1.764,-0.264 -2.34,-0.792 -0.576,-0.527 -0.864,-1.248 -0.864,-2.16 v -7.487 c 0,-1.057 -0.186,-1.824 -0.558,-2.305 -0.372,-0.479 -0.932,-0.72 -1.674,-0.72 -0.96,0 -1.724,0.306 -2.286,0.918 -0.564,0.612 -0.847,1.435 -0.847,2.466 v 7.128 c 0,0.912 -0.287,1.632 -0.863,2.16 -0.576,0.528 -1.356,0.792 -2.34,0.792 -0.984,0 -1.766,-0.264 -2.341,-0.792 -0.575,-0.527 -0.863,-1.248 -0.863,-2.16 V 172.96 c 0,-0.84 0.3,-1.529 0.899,-2.069 0.601,-0.54 1.379,-0.811 2.34,-0.811 0.911,0 1.639,0.252 2.179,0.756 0.54,0.504 0.81,1.164 0.81,1.98 0.624,-0.912 1.428,-1.608 2.412,-2.088 0.984,-0.48 2.076,-0.721 3.276,-0.721 2.111,0.002 3.684,0.632 4.716,1.892 z"
   id="path192"
   inkscape:connector-curvature="0" />
	<path
   d="m 479.454,188.081 c -1.104,-0.24 -2.075,-0.624 -2.916,-1.151 -0.337,-0.167 -0.601,-0.456 -0.792,-0.864 -0.191,-0.408 -0.287,-0.864 -0.287,-1.368 0,-0.648 0.174,-1.182 0.521,-1.602 0.347,-0.42 0.785,-0.631 1.313,-0.631 0.359,0 0.695,0.042 1.008,0.126 0.312,0.084 0.695,0.223 1.151,0.414 0.769,0.265 1.445,0.469 2.034,0.612 0.588,0.145 1.337,0.216 2.25,0.216 0.647,0 1.157,-0.09 1.529,-0.27 0.372,-0.181 0.559,-0.438 0.559,-0.774 0,-0.264 -0.09,-0.468 -0.271,-0.611 -0.18,-0.145 -0.521,-0.282 -1.025,-0.414 -0.504,-0.132 -1.355,-0.318 -2.557,-0.559 -2.136,-0.408 -3.678,-1.025 -4.626,-1.854 -0.948,-0.829 -1.422,-1.998 -1.422,-3.511 0,-1.104 0.342,-2.1 1.025,-2.987 0.685,-0.889 1.626,-1.584 2.826,-2.088 1.199,-0.504 2.543,-0.757 4.031,-0.757 1.08,0 2.13,0.133 3.149,0.396 1.021,0.265 1.927,0.636 2.719,1.116 0.744,0.432 1.115,1.128 1.115,2.088 0,0.672 -0.18,1.236 -0.539,1.691 -0.36,0.456 -0.806,0.685 -1.332,0.685 -0.624,0 -1.368,-0.204 -2.231,-0.612 -0.576,-0.264 -1.087,-0.462 -1.53,-0.594 -0.443,-0.132 -0.967,-0.198 -1.565,-0.198 -0.6,0 -1.068,0.09 -1.403,0.271 -0.337,0.18 -0.505,0.438 -0.505,0.773 0,0.385 0.233,0.685 0.702,0.9 0.469,0.215 1.397,0.456 2.79,0.72 2.328,0.409 3.972,1.026 4.933,1.854 0.959,0.828 1.439,2.021 1.439,3.582 0,1.752 -0.727,3.149 -2.179,4.193 -1.452,1.044 -3.401,1.566 -5.85,1.566 -1.604,0.002 -2.96,-0.119 -4.064,-0.358 z"
   id="path194"
   inkscape:connector-curvature="0" />
	<path
   d="m 494.808,166.715 c -0.636,-0.562 -0.954,-1.313 -0.954,-2.25 0,-0.936 0.318,-1.68 0.954,-2.231 0.636,-0.551 1.494,-0.828 2.574,-0.828 1.056,0 1.907,0.276 2.556,0.828 0.649,0.552 0.972,1.296 0.972,2.231 0,0.937 -0.317,1.688 -0.953,2.25 -0.637,0.564 -1.493,0.847 -2.573,0.847 -1.08,0 -1.94,-0.283 -2.576,-0.847 z m 0.288,20.916 c -0.612,-0.491 -0.918,-1.229 -0.918,-2.214 v -12.384 c 0,-0.984 0.306,-1.722 0.918,-2.214 0.611,-0.492 1.374,-0.738 2.286,-0.738 0.912,0 1.674,0.246 2.286,0.738 0.61,0.492 0.918,1.229 0.918,2.214 v 12.384 c 0,0.984 -0.308,1.723 -0.918,2.214 -0.612,0.492 -1.374,0.738 -2.286,0.738 -0.912,0 -1.675,-0.246 -2.286,-0.738 z"
   id="path196"
   inkscape:connector-curvature="0" />
	<path
   d="m 522.131,163.403 c 0.611,0.54 0.918,1.229 0.918,2.07 v 19.943 c 0,0.912 -0.288,1.632 -0.864,2.16 -0.575,0.528 -1.344,0.792 -2.304,0.792 -0.889,0 -1.614,-0.233 -2.179,-0.702 -0.563,-0.468 -0.882,-1.109 -0.954,-1.926 -0.504,0.84 -1.241,1.5 -2.214,1.98 -0.973,0.479 -2.047,0.72 -3.223,0.72 -1.512,0 -2.861,-0.39 -4.05,-1.17 -1.189,-0.78 -2.118,-1.878 -2.79,-3.294 -0.672,-1.416 -1.008,-3.036 -1.008,-4.86 0,-1.824 0.33,-3.425 0.989,-4.806 0.659,-1.38 1.584,-2.442 2.771,-3.187 1.187,-0.745 2.55,-1.115 4.086,-1.115 1.128,0 2.166,0.229 3.114,0.684 0.948,0.456 1.686,1.068 2.214,1.836 v -7.164 c 0,-0.84 0.282,-1.512 0.847,-2.016 0.563,-0.504 1.325,-0.756 2.285,-0.756 0.96,0 1.75,0.271 2.362,0.811 z m -6.282,19.098 c 0.6,-0.768 0.899,-1.872 0.899,-3.312 0,-1.416 -0.301,-2.502 -0.899,-3.258 -0.601,-0.757 -1.464,-1.135 -2.592,-1.135 -1.104,0 -1.956,0.373 -2.557,1.116 -0.601,0.745 -0.899,1.812 -0.899,3.204 0,1.44 0.306,2.556 0.918,3.348 0.611,0.792 1.458,1.188 2.538,1.188 1.128,0.001 1.993,-0.383 2.592,-1.151 z"
   id="path198"
   inkscape:connector-curvature="0" />
	<path
   d="m 542.543,183.113 c 0.348,0.432 0.521,0.996 0.521,1.692 0,0.96 -0.468,1.691 -1.403,2.195 -0.815,0.408 -1.781,0.75 -2.897,1.026 -1.116,0.275 -2.143,0.414 -3.078,0.414 -1.968,0 -3.685,-0.372 -5.147,-1.116 -1.465,-0.744 -2.592,-1.812 -3.384,-3.204 -0.792,-1.392 -1.188,-3.023 -1.188,-4.896 0,-1.775 0.378,-3.366 1.134,-4.771 0.756,-1.403 1.812,-2.496 3.168,-3.275 1.355,-0.779 2.886,-1.17 4.59,-1.17 1.656,0 3.108,0.359 4.356,1.079 1.248,0.721 2.214,1.74 2.897,3.061 0.685,1.32 1.025,2.868 1.025,4.644 0,0.553 -0.126,0.979 -0.378,1.278 -0.252,0.299 -0.618,0.45 -1.099,0.45 h -9.504 c 0.167,1.151 0.54,1.979 1.115,2.483 0.576,0.504 1.428,0.757 2.557,0.757 0.601,0 1.151,-0.066 1.656,-0.198 0.504,-0.132 1.067,-0.318 1.691,-0.559 0.359,-0.144 0.714,-0.27 1.062,-0.378 0.349,-0.107 0.666,-0.162 0.954,-0.162 0.554,0.002 1.004,0.218 1.352,0.65 z m -9.522,-7.974 c -0.504,0.54 -0.804,1.326 -0.899,2.357 h 5.651 c -0.144,-2.111 -1.056,-3.168 -2.735,-3.168 -0.841,0.001 -1.513,0.271 -2.017,0.811 z"
   id="path200"
   inkscape:connector-curvature="0" />
	<path
   d="m 562.685,171.899 c 1.031,1.26 1.548,3.174 1.548,5.742 v 7.775 c 0,0.912 -0.288,1.632 -0.863,2.16 -0.575,0.528 -1.355,0.792 -2.341,0.792 -0.984,0 -1.764,-0.264 -2.34,-0.792 -0.576,-0.527 -0.864,-1.248 -0.864,-2.16 v -7.487 c 0,-1.057 -0.186,-1.824 -0.558,-2.305 -0.372,-0.479 -0.931,-0.72 -1.674,-0.72 -0.96,0 -1.724,0.306 -2.286,0.918 -0.564,0.612 -0.846,1.435 -0.846,2.466 v 7.128 c 0,0.912 -0.288,1.632 -0.864,2.16 -0.576,0.528 -1.356,0.792 -2.34,0.792 -0.984,0 -1.766,-0.264 -2.341,-0.792 -0.575,-0.527 -0.863,-1.248 -0.863,-2.16 V 172.96 c 0,-0.84 0.3,-1.529 0.899,-2.069 0.601,-0.54 1.379,-0.811 2.34,-0.811 0.911,0 1.639,0.252 2.179,0.756 0.54,0.504 0.81,1.164 0.81,1.98 0.624,-0.912 1.428,-1.608 2.412,-2.088 0.984,-0.48 2.076,-0.721 3.276,-0.721 2.111,0.002 3.684,0.632 4.716,1.892 z"
   id="path202"
   inkscape:connector-curvature="0" />
	<path
   d="m 580.721,185.957 c 0,0.84 -0.324,1.464 -0.973,1.872 -0.647,0.408 -1.571,0.576 -2.771,0.504 l -1.008,-0.071 c -2.16,-0.167 -3.798,-0.822 -4.914,-1.963 -1.116,-1.14 -1.674,-2.729 -1.674,-4.77 v -6.372 h -1.044 c -1.92,0 -2.88,-0.792 -2.88,-2.376 0,-1.56 0.96,-2.34 2.88,-2.34 h 1.044 v -2.34 c 0,-0.912 0.288,-1.639 0.863,-2.179 0.576,-0.54 1.355,-0.81 2.341,-0.81 0.982,0 1.764,0.27 2.34,0.81 0.576,0.54 0.864,1.267 0.864,2.179 v 2.34 h 1.979 c 1.92,0 2.881,0.78 2.881,2.34 0,1.584 -0.961,2.376 -2.881,2.376 h -1.979 v 6.912 c 0,0.456 0.138,0.84 0.414,1.152 0.274,0.312 0.63,0.479 1.062,0.504 l 1.044,0.071 c 1.607,0.097 2.412,0.817 2.412,2.161 z"
   id="path204"
   inkscape:connector-curvature="0" />
	<path
   d="m 598.163,183.113 c 0.349,0.432 0.521,0.996 0.521,1.692 0,0.96 -0.468,1.691 -1.403,2.195 -0.815,0.408 -1.781,0.75 -2.897,1.026 -1.116,0.275 -2.143,0.414 -3.078,0.414 -1.968,0 -3.685,-0.372 -5.147,-1.116 -1.465,-0.744 -2.592,-1.812 -3.384,-3.204 -0.792,-1.392 -1.188,-3.023 -1.188,-4.896 0,-1.775 0.378,-3.366 1.134,-4.771 0.756,-1.403 1.812,-2.496 3.168,-3.275 1.354,-0.779 2.886,-1.17 4.59,-1.17 1.656,0 3.108,0.359 4.356,1.079 1.248,0.721 2.214,1.74 2.897,3.061 0.685,1.32 1.025,2.868 1.025,4.644 0,0.553 -0.126,0.979 -0.378,1.278 -0.252,0.299 -0.618,0.45 -1.099,0.45 h -9.504 c 0.167,1.151 0.54,1.979 1.115,2.483 0.576,0.504 1.428,0.757 2.557,0.757 0.601,0 1.151,-0.066 1.656,-0.198 0.504,-0.132 1.067,-0.318 1.691,-0.559 0.359,-0.144 0.714,-0.27 1.062,-0.378 0.349,-0.107 0.666,-0.162 0.954,-0.162 0.554,0.002 1.004,0.218 1.352,0.65 z m -9.522,-7.974 c -0.504,0.54 -0.804,1.326 -0.899,2.357 h 5.651 c -0.145,-2.111 -1.056,-3.168 -2.735,-3.168 -0.841,0.001 -1.513,0.271 -2.017,0.811 z"
   id="path206"
   inkscape:connector-curvature="0" />
	<path
   d="m 637.168,163.493 c 0.575,0.602 0.862,1.38 0.862,2.34 v 19.584 c 0,0.912 -0.264,1.632 -0.792,2.16 -0.526,0.528 -1.224,0.792 -2.088,0.792 -0.84,0 -1.529,-0.264 -2.068,-0.792 -0.54,-0.527 -0.812,-1.248 -0.812,-2.16 v -10.584 l -4.104,7.561 c -0.408,0.768 -0.842,1.313 -1.297,1.638 -0.456,0.324 -0.995,0.486 -1.619,0.486 -0.625,0 -1.165,-0.162 -1.62,-0.486 -0.456,-0.324 -0.89,-0.87 -1.296,-1.638 l -4.068,-7.345 v 10.368 c 0,0.889 -0.271,1.603 -0.81,2.143 -0.54,0.54 -1.242,0.81 -2.106,0.81 -0.84,0 -1.53,-0.264 -2.07,-0.792 -0.539,-0.527 -0.81,-1.248 -0.81,-2.16 v -19.584 c 0,-0.96 0.294,-1.74 0.882,-2.34 0.588,-0.6 1.338,-0.9 2.25,-0.9 0.648,0 1.236,0.187 1.765,0.559 0.527,0.373 0.973,0.906 1.331,1.602 l 6.624,12.456 6.589,-12.456 c 0.743,-1.439 1.751,-2.16 3.023,-2.16 0.914,-0.001 1.658,0.298 2.234,0.898 z"
   id="path208"
   inkscape:connector-curvature="0" />
	<path
   d="m 658.031,183.113 c 0.349,0.432 0.521,0.996 0.521,1.692 0,0.96 -0.468,1.691 -1.403,2.195 -0.816,0.408 -1.782,0.75 -2.898,1.026 -1.115,0.275 -2.142,0.414 -3.077,0.414 -1.969,0 -3.685,-0.372 -5.147,-1.116 -1.465,-0.744 -2.592,-1.812 -3.384,-3.204 -0.792,-1.392 -1.188,-3.023 -1.188,-4.896 0,-1.775 0.379,-3.366 1.135,-4.771 0.756,-1.403 1.812,-2.496 3.168,-3.275 1.354,-0.779 2.886,-1.17 4.59,-1.17 1.656,0 3.107,0.359 4.355,1.079 1.248,0.721 2.215,1.74 2.898,3.061 0.683,1.321 1.025,2.868 1.025,4.644 0,0.553 -0.126,0.979 -0.378,1.278 -0.253,0.3 -0.618,0.45 -1.099,0.45 h -9.504 c 0.167,1.151 0.54,1.979 1.115,2.483 0.576,0.504 1.428,0.757 2.557,0.757 0.601,0 1.151,-0.066 1.656,-0.198 0.504,-0.132 1.067,-0.318 1.691,-0.559 0.359,-0.144 0.714,-0.27 1.062,-0.378 0.348,-0.107 0.666,-0.162 0.954,-0.162 0.553,0.002 1.002,0.218 1.351,0.65 z m -9.523,-7.974 c -0.504,0.54 -0.805,1.326 -0.899,2.357 h 5.651 c -0.145,-2.111 -1.057,-3.168 -2.735,-3.168 -0.841,0.001 -1.513,0.271 -2.017,0.811 z"
   id="path210"
   inkscape:connector-curvature="0" />
	<path
   d="m 678.172,171.899 c 1.03,1.26 1.548,3.174 1.548,5.742 v 7.775 c 0,0.912 -0.288,1.632 -0.863,2.16 -0.576,0.528 -1.356,0.792 -2.341,0.792 -0.985,0 -1.764,-0.264 -2.34,-0.792 -0.576,-0.527 -0.864,-1.248 -0.864,-2.16 v -7.487 c 0,-1.057 -0.187,-1.824 -0.558,-2.305 -0.372,-0.479 -0.932,-0.72 -1.675,-0.72 -0.96,0 -1.723,0.306 -2.286,0.918 -0.563,0.612 -0.846,1.435 -0.846,2.466 v 7.128 c 0,0.912 -0.288,1.632 -0.864,2.16 -0.575,0.528 -1.355,0.792 -2.34,0.792 -0.983,0 -1.765,-0.264 -2.34,-0.792 -0.576,-0.527 -0.864,-1.248 -0.864,-2.16 V 172.96 c 0,-0.84 0.301,-1.529 0.9,-2.069 0.599,-0.54 1.379,-0.811 2.34,-0.811 0.911,0 1.638,0.252 2.178,0.756 0.54,0.504 0.811,1.164 0.811,1.98 0.624,-0.912 1.428,-1.608 2.412,-2.088 0.983,-0.48 2.076,-0.721 3.275,-0.721 2.113,0.002 3.685,0.632 4.717,1.892 z"
   id="path212"
   inkscape:connector-curvature="0" />
	<path
   d="m 686.236,188.081 c -1.104,-0.24 -2.076,-0.624 -2.916,-1.151 -0.337,-0.167 -0.601,-0.456 -0.792,-0.864 -0.191,-0.408 -0.288,-0.864 -0.288,-1.368 0,-0.648 0.174,-1.182 0.522,-1.602 0.348,-0.42 0.785,-0.631 1.312,-0.631 0.36,0 0.696,0.042 1.008,0.126 0.312,0.084 0.696,0.223 1.152,0.414 0.768,0.265 1.445,0.469 2.034,0.612 0.588,0.145 1.337,0.216 2.25,0.216 0.646,0 1.157,-0.09 1.529,-0.27 0.372,-0.181 0.559,-0.438 0.559,-0.774 0,-0.264 -0.09,-0.468 -0.271,-0.611 -0.181,-0.145 -0.521,-0.282 -1.025,-0.414 -0.504,-0.132 -1.356,-0.318 -2.557,-0.559 -2.137,-0.408 -3.679,-1.025 -4.627,-1.854 -0.947,-0.828 -1.422,-1.998 -1.422,-3.511 0,-1.104 0.343,-2.1 1.026,-2.987 0.684,-0.889 1.626,-1.584 2.826,-2.088 1.199,-0.504 2.543,-0.757 4.031,-0.757 1.079,0 2.13,0.133 3.149,0.396 1.021,0.265 1.926,0.636 2.718,1.116 0.744,0.432 1.116,1.128 1.116,2.088 0,0.672 -0.18,1.236 -0.54,1.691 -0.359,0.456 -0.805,0.685 -1.332,0.685 -0.624,0 -1.367,-0.204 -2.23,-0.612 -0.576,-0.264 -1.087,-0.462 -1.53,-0.594 -0.444,-0.132 -0.967,-0.198 -1.566,-0.198 -0.599,0 -1.067,0.09 -1.402,0.271 -0.337,0.18 -0.505,0.438 -0.505,0.773 0,0.385 0.233,0.685 0.702,0.9 0.469,0.215 1.397,0.456 2.789,0.72 2.328,0.409 3.973,1.026 4.934,1.854 0.959,0.828 1.438,2.021 1.438,3.582 0,1.752 -0.726,3.149 -2.178,4.193 -1.452,1.044 -3.401,1.566 -5.85,1.566 -1.604,0.002 -2.961,-0.119 -4.064,-0.358 z"
   id="path214"
   inkscape:connector-curvature="0" />
	<path
   d="m 702.652,185.993 c -1.681,-1.632 -2.521,-3.852 -2.521,-6.66 0,-1.848 0.407,-3.479 1.224,-4.896 0.817,-1.417 1.963,-2.508 3.438,-3.276 1.476,-0.768 3.161,-1.152 5.058,-1.152 1.009,0 2.017,0.133 3.023,0.396 1.009,0.265 1.896,0.636 2.664,1.116 0.743,0.456 1.116,1.151 1.116,2.088 0,0.744 -0.175,1.35 -0.521,1.818 -0.349,0.468 -0.798,0.701 -1.351,0.701 -0.359,0 -0.708,-0.054 -1.044,-0.162 -0.337,-0.107 -0.709,-0.27 -1.116,-0.485 -0.479,-0.216 -0.889,-0.378 -1.225,-0.486 -0.336,-0.107 -0.708,-0.162 -1.115,-0.162 -2.376,0 -3.563,1.452 -3.563,4.356 0,1.439 0.307,2.538 0.918,3.294 0.611,0.756 1.494,1.134 2.646,1.134 0.407,0 0.785,-0.054 1.134,-0.162 0.349,-0.107 0.738,-0.27 1.171,-0.485 0.479,-0.217 0.868,-0.379 1.17,-0.486 0.3,-0.108 0.63,-0.162 0.989,-0.162 0.553,0 1.002,0.234 1.351,0.702 0.348,0.468 0.521,1.074 0.521,1.817 0,0.456 -0.097,0.87 -0.288,1.242 -0.191,0.372 -0.456,0.654 -0.792,0.847 -1.655,1.008 -3.672,1.512 -6.048,1.512 -2.879,-0.001 -5.161,-0.817 -6.839,-2.449 z"
   id="path216"
   inkscape:connector-curvature="0" />
	<path
   d="m 735.627,171.899 c 1.008,1.26 1.512,3.174 1.512,5.742 v 7.775 c 0,0.912 -0.288,1.632 -0.863,2.16 -0.576,0.528 -1.355,0.792 -2.341,0.792 -0.986,0 -1.764,-0.264 -2.34,-0.792 -0.576,-0.527 -0.864,-1.248 -0.864,-2.16 v -7.92 c 0,-1.728 -0.744,-2.592 -2.23,-2.592 -0.961,0 -1.724,0.306 -2.286,0.918 -0.564,0.612 -0.847,1.435 -0.847,2.466 v 7.128 c 0,0.912 -0.288,1.632 -0.863,2.16 -0.576,0.528 -1.356,0.792 -2.341,0.792 -0.983,0 -1.765,-0.264 -2.34,-0.792 -0.576,-0.526 -0.864,-1.248 -0.864,-2.16 v -19.943 c 0,-0.841 0.301,-1.53 0.9,-2.07 0.599,-0.54 1.393,-0.81 2.376,-0.81 0.937,0 1.691,0.252 2.269,0.756 0.575,0.504 0.863,1.176 0.863,2.016 v 7.2 c 0.647,-0.84 1.451,-1.477 2.412,-1.908 0.959,-0.432 2.039,-0.647 3.239,-0.647 2.063,-0.001 3.6,0.629 4.608,1.889 z"
   id="path218"
   inkscape:connector-curvature="0" />
	<path
   d="m 756.49,183.113 c 0.349,0.432 0.521,0.996 0.521,1.692 0,0.96 -0.468,1.691 -1.403,2.195 -0.816,0.408 -1.782,0.75 -2.898,1.026 -1.115,0.275 -2.142,0.414 -3.077,0.414 -1.969,0 -3.685,-0.372 -5.147,-1.116 -1.465,-0.744 -2.592,-1.812 -3.384,-3.204 -0.792,-1.392 -1.188,-3.023 -1.188,-4.896 0,-1.775 0.379,-3.366 1.135,-4.771 0.756,-1.403 1.812,-2.496 3.168,-3.275 1.354,-0.779 2.886,-1.17 4.59,-1.17 1.656,0 3.107,0.359 4.355,1.079 1.248,0.721 2.215,1.74 2.898,3.061 0.683,1.321 1.025,2.868 1.025,4.644 0,0.553 -0.126,0.979 -0.378,1.278 -0.253,0.3 -0.618,0.45 -1.099,0.45 h -9.504 c 0.167,1.151 0.54,1.979 1.115,2.483 0.576,0.504 1.428,0.757 2.557,0.757 0.601,0 1.151,-0.066 1.656,-0.198 0.504,-0.132 1.067,-0.318 1.691,-0.559 0.359,-0.144 0.714,-0.27 1.062,-0.378 0.348,-0.107 0.666,-0.162 0.954,-0.162 0.553,0.002 1.002,0.218 1.351,0.65 z m -9.523,-7.974 c -0.504,0.54 -0.805,1.326 -0.899,2.357 h 5.651 c -0.145,-2.111 -1.057,-3.168 -2.735,-3.168 -0.841,0.001 -1.513,0.271 -2.017,0.811 z"
   id="path220"
   inkscape:connector-curvature="0" />
	<path
   d="m 776.63,171.899 c 1.03,1.26 1.548,3.174 1.548,5.742 v 7.775 c 0,0.912 -0.288,1.632 -0.863,2.16 -0.576,0.528 -1.355,0.792 -2.341,0.792 -0.986,0 -1.764,-0.264 -2.34,-0.792 -0.576,-0.527 -0.864,-1.248 -0.864,-2.16 v -7.487 c 0,-1.057 -0.186,-1.824 -0.558,-2.305 -0.372,-0.479 -0.932,-0.72 -1.675,-0.72 -0.96,0 -1.723,0.306 -2.285,0.918 -0.564,0.612 -0.847,1.435 -0.847,2.466 v 7.128 c 0,0.912 -0.288,1.632 -0.864,2.16 -0.575,0.528 -1.355,0.792 -2.34,0.792 -0.983,0 -1.765,-0.264 -2.34,-0.792 -0.576,-0.527 -0.864,-1.248 -0.864,-2.16 V 172.96 c 0,-0.84 0.3,-1.529 0.9,-2.069 0.6,-0.54 1.379,-0.811 2.34,-0.811 0.911,0 1.638,0.252 2.178,0.756 0.54,0.504 0.811,1.164 0.811,1.98 0.624,-0.912 1.428,-1.608 2.412,-2.088 0.983,-0.48 2.075,-0.721 3.275,-0.721 2.113,0.002 3.685,0.632 4.717,1.892 z"
   id="path222"
   inkscape:connector-curvature="0" />
	<path
   d="m 791.859,178.469 c 0,-1.656 0.995,-2.484 2.987,-2.484 h 6.769 c 1.008,0 1.758,0.216 2.25,0.647 0.491,0.433 0.738,1.045 0.738,1.837 0,0.792 -0.247,1.409 -0.738,1.854 -0.492,0.444 -1.242,0.666 -2.25,0.666 h -6.769 c -1.992,0 -2.987,-0.84 -2.987,-2.52 z"
   id="path224"
   inkscape:connector-curvature="0" />
	<path
   d="m 34.122,230.65 c -0.612,-0.588 -0.918,-1.373 -0.918,-2.357 v -16.957 h -5.076 c -1.058,0 -1.842,-0.221 -2.358,-0.666 -0.517,-0.442 -0.773,-1.121 -0.773,-2.032 0,-0.912 0.258,-1.584 0.773,-2.017 0.517,-0.433 1.301,-0.647 2.358,-0.647 h 16.848 c 1.057,0 1.842,0.216 2.358,0.647 0.516,0.433 0.773,1.104 0.773,2.017 0,0.911 -0.258,1.59 -0.773,2.032 -0.518,0.445 -1.302,0.666 -2.358,0.666 H 39.9 v 16.957 c 0,0.984 -0.306,1.771 -0.918,2.357 -0.611,0.589 -1.422,0.882 -2.43,0.882 -1.008,0 -1.818,-0.293 -2.43,-0.882 z"
   id="path226"
   inkscape:connector-curvature="0" />
	<path
   d="m 60.06,213.838 c 0.48,0.445 0.72,1.1 0.72,1.963 0,0.961 -0.222,1.656 -0.666,2.089 -0.443,0.432 -1.241,0.708 -2.394,0.827 l -1.08,0.107 c -1.2,0.146 -2.058,0.522 -2.574,1.135 -0.517,0.611 -0.773,1.445 -0.773,2.501 v 6.156 c 0,0.984 -0.307,1.723 -0.918,2.214 -0.612,0.492 -1.374,0.738 -2.286,0.738 -0.913,0 -1.674,-0.246 -2.286,-0.738 -0.612,-0.491 -0.918,-1.229 -0.918,-2.214 V 216.16 c 0,-0.912 0.306,-1.619 0.918,-2.123 0.612,-0.504 1.35,-0.756 2.214,-0.756 0.888,0 1.603,0.239 2.143,0.719 0.54,0.48 0.81,1.152 0.81,2.018 v 0.685 c 0.384,-1.057 1.014,-1.873 1.89,-2.449 0.875,-0.574 1.793,-0.887 2.754,-0.936 l 0.505,-0.035 c 0.813,-0.074 1.461,0.112 1.941,0.555 z"
   id="path228"
   inkscape:connector-curvature="0" />
	<path
   d="m 76.313,215.17 c 1.309,1.31 1.962,3.295 1.962,5.959 v 7.523 c 0,0.912 -0.27,1.626 -0.81,2.143 -0.54,0.517 -1.291,0.773 -2.25,0.773 -0.84,0 -1.53,-0.239 -2.07,-0.72 -0.54,-0.479 -0.834,-1.128 -0.882,-1.944 -0.336,0.864 -0.9,1.536 -1.692,2.017 -0.792,0.479 -1.739,0.721 -2.844,0.721 -1.224,0 -2.329,-0.246 -3.312,-0.738 -0.984,-0.491 -1.76,-1.176 -2.322,-2.052 -0.564,-0.876 -0.846,-1.866 -0.846,-2.971 0,-1.271 0.33,-2.285 0.989,-3.042 0.66,-0.757 1.71,-1.302 3.15,-1.638 1.44,-0.336 3.384,-0.504 5.832,-0.504 h 0.972 v -0.433 c 0,-0.841 -0.191,-1.446 -0.575,-1.817 -0.385,-0.373 -1.032,-0.559 -1.944,-0.559 -0.984,0 -2.424,0.336 -4.32,1.008 -0.553,0.191 -1.021,0.288 -1.404,0.288 -0.6,0 -1.079,-0.217 -1.439,-0.647 -0.36,-0.433 -0.54,-0.996 -0.54,-1.691 0,-0.528 0.108,-0.961 0.324,-1.297 0.216,-0.336 0.562,-0.636 1.044,-0.899 0.84,-0.433 1.896,-0.779 3.168,-1.044 1.271,-0.265 2.52,-0.396 3.744,-0.396 2.735,-0.001 4.757,0.653 6.065,1.96 z m -4.95,11.268 c 0.553,-0.612 0.828,-1.397 0.828,-2.358 v -0.432 h -0.575 c -1.536,0 -2.629,0.139 -3.276,0.414 -0.648,0.275 -0.972,0.737 -0.972,1.386 0,0.553 0.174,1.008 0.521,1.368 0.348,0.359 0.798,0.54 1.35,0.54 0.865,0 1.572,-0.305 2.124,-0.918 z"
   id="path230"
   inkscape:connector-curvature="0" />
	<path
   d="m 98.507,215.099 c 1.032,1.26 1.548,3.175 1.548,5.74 v 7.776 c 0,0.913 -0.288,1.633 -0.864,2.16 -0.575,0.528 -1.355,0.792 -2.34,0.792 -0.983,0 -1.764,-0.264 -2.34,-0.792 -0.576,-0.527 -0.864,-1.247 -0.864,-2.16 v -7.487 c 0,-1.057 -0.186,-1.823 -0.558,-2.305 -0.372,-0.479 -0.93,-0.72 -1.674,-0.72 -0.96,0 -1.724,0.306 -2.286,0.918 -0.564,0.611 -0.846,1.435 -0.846,2.466 v 7.128 c 0,0.913 -0.288,1.633 -0.864,2.16 -0.576,0.528 -1.356,0.792 -2.34,0.792 -0.984,0 -1.765,-0.264 -2.341,-0.792 -0.575,-0.527 -0.863,-1.247 -0.863,-2.16 V 216.16 c 0,-0.84 0.3,-1.529 0.899,-2.07 0.601,-0.539 1.38,-0.809 2.341,-0.809 0.911,0 1.638,0.252 2.178,0.756 0.54,0.504 0.81,1.164 0.81,1.979 0.624,-0.912 1.429,-1.608 2.412,-2.088 0.983,-0.48 2.075,-0.721 3.276,-0.721 2.111,0.002 3.684,0.631 4.716,1.892 z"
   id="path232"
   inkscape:connector-curvature="0" />
	<path
   d="m 106.571,231.28 c -1.104,-0.239 -2.075,-0.624 -2.916,-1.151 -0.336,-0.168 -0.6,-0.456 -0.792,-0.863 -0.191,-0.408 -0.287,-0.864 -0.287,-1.368 0,-0.647 0.174,-1.183 0.521,-1.603 0.347,-0.42 0.786,-0.631 1.314,-0.631 0.359,0 0.695,0.043 1.008,0.127 0.312,0.084 0.696,0.223 1.151,0.413 0.769,0.266 1.445,0.469 2.034,0.612 0.588,0.145 1.338,0.216 2.25,0.216 0.648,0 1.158,-0.09 1.53,-0.27 0.372,-0.181 0.558,-0.438 0.558,-0.774 0,-0.264 -0.09,-0.468 -0.27,-0.611 -0.18,-0.145 -0.522,-0.281 -1.026,-0.414 -0.504,-0.132 -1.355,-0.317 -2.556,-0.559 -2.137,-0.407 -3.678,-1.025 -4.626,-1.854 -0.949,-0.827 -1.422,-1.997 -1.422,-3.51 0,-1.104 0.342,-2.1 1.025,-2.987 0.685,-0.889 1.625,-1.585 2.826,-2.089 1.201,-0.504 2.544,-0.756 4.032,-0.756 1.08,0 2.129,0.132 3.15,0.396 1.02,0.265 1.926,0.636 2.718,1.116 0.744,0.432 1.116,1.129 1.116,2.088 0,0.672 -0.181,1.235 -0.54,1.69 -0.36,0.457 -0.805,0.686 -1.332,0.686 -0.624,0 -1.368,-0.204 -2.232,-0.612 -0.576,-0.264 -1.086,-0.461 -1.53,-0.594 -0.443,-0.132 -0.966,-0.197 -1.565,-0.197 -0.602,0 -1.068,0.09 -1.404,0.27 -0.336,0.181 -0.504,0.438 -0.504,0.773 0,0.385 0.234,0.684 0.702,0.9 0.468,0.216 1.396,0.456 2.79,0.72 2.328,0.409 3.972,1.026 4.932,1.854 0.96,0.828 1.44,2.021 1.44,3.582 0,1.752 -0.727,3.149 -2.179,4.193 -1.452,1.044 -3.401,1.566 -5.85,1.566 -1.606,0.002 -2.963,-0.118 -4.066,-0.359 z"
   id="path234"
   inkscape:connector-curvature="0" />
	<path
   d="m 129.772,211.354 c -0.348,0.468 -0.521,1.087 -0.521,1.854 v 0.433 h 1.979 c 1.92,0 2.88,0.779 2.88,2.34 0,1.584 -0.96,2.376 -2.88,2.376 h -1.979 v 10.188 c 0,0.984 -0.307,1.729 -0.918,2.231 -0.612,0.504 -1.375,0.756 -2.286,0.756 -0.913,0 -1.674,-0.252 -2.286,-0.756 -0.612,-0.504 -0.918,-1.247 -0.918,-2.231 v -10.188 h -1.044 c -1.92,0 -2.88,-0.792 -2.88,-2.376 0,-1.561 0.959,-2.34 2.88,-2.34 h 1.044 c 0.048,-2.306 0.738,-4.109 2.07,-5.418 1.332,-1.31 3.137,-2.046 5.418,-2.216 l 0.936,-0.07 c 0.191,-0.023 0.443,-0.036 0.756,-0.036 1.032,0 1.776,0.192 2.232,0.576 0.456,0.385 0.684,0.936 0.684,1.655 0,0.721 -0.216,1.277 -0.647,1.675 -0.433,0.396 -1.021,0.617 -1.765,0.666 l -0.936,0.071 c -0.864,0.073 -1.471,0.343 -1.819,0.81 z"
   id="path236"
   inkscape:connector-curvature="0" />
	<path
   d="m 148.654,213.838 c 0.48,0.445 0.721,1.1 0.721,1.963 0,0.961 -0.223,1.656 -0.666,2.089 -0.444,0.432 -1.242,0.708 -2.395,0.827 l -1.08,0.107 c -1.199,0.146 -2.058,0.522 -2.573,1.135 -0.518,0.611 -0.774,1.445 -0.774,2.501 v 6.156 c 0,0.984 -0.306,1.723 -0.918,2.214 -0.612,0.492 -1.374,0.738 -2.286,0.738 -0.913,0 -1.674,-0.246 -2.286,-0.738 -0.611,-0.491 -0.918,-1.229 -0.918,-2.214 V 216.16 c 0,-0.912 0.307,-1.619 0.918,-2.123 0.612,-0.504 1.351,-0.756 2.214,-0.756 0.889,0 1.603,0.239 2.143,0.719 0.54,0.48 0.81,1.152 0.81,2.018 v 0.685 c 0.384,-1.057 1.015,-1.873 1.891,-2.449 0.875,-0.574 1.793,-0.887 2.754,-0.936 l 0.504,-0.035 c 0.813,-0.074 1.461,0.112 1.941,0.555 z"
   id="path238"
   inkscape:connector-curvature="0" />
	<path
   d="m 164.908,215.17 c 1.308,1.31 1.962,3.295 1.962,5.959 v 7.523 c 0,0.912 -0.271,1.626 -0.811,2.143 -0.54,0.517 -1.291,0.773 -2.25,0.773 -0.84,0 -1.53,-0.239 -2.069,-0.72 -0.54,-0.479 -0.835,-1.128 -0.883,-1.944 -0.336,0.864 -0.899,1.536 -1.691,2.017 -0.792,0.479 -1.74,0.721 -2.845,0.721 -1.224,0 -2.328,-0.246 -3.312,-0.738 -0.984,-0.491 -1.759,-1.176 -2.322,-2.052 -0.563,-0.876 -0.846,-1.866 -0.846,-2.971 0,-1.271 0.33,-2.285 0.99,-3.042 0.66,-0.757 1.71,-1.302 3.149,-1.638 1.44,-0.336 3.385,-0.504 5.832,-0.504 h 0.973 v -0.433 c 0,-0.841 -0.192,-1.446 -0.576,-1.817 -0.384,-0.373 -1.032,-0.559 -1.944,-0.559 -0.983,0 -2.424,0.336 -4.32,1.008 -0.553,0.191 -1.021,0.288 -1.403,0.288 -0.601,0 -1.08,-0.217 -1.44,-0.647 -0.359,-0.433 -0.54,-0.996 -0.54,-1.691 0,-0.528 0.108,-0.961 0.324,-1.297 0.216,-0.336 0.563,-0.636 1.044,-0.899 0.84,-0.433 1.896,-0.779 3.168,-1.044 1.272,-0.265 2.521,-0.396 3.744,-0.396 2.736,-0.001 4.757,0.653 6.066,1.96 z m -4.95,11.268 c 0.552,-0.612 0.828,-1.397 0.828,-2.358 v -0.432 h -0.576 c -1.536,0 -2.628,0.139 -3.276,0.414 -0.647,0.275 -0.972,0.737 -0.972,1.386 0,0.553 0.174,1.008 0.521,1.368 0.349,0.359 0.799,0.54 1.351,0.54 0.864,0 1.571,-0.305 2.124,-0.918 z"
   id="path240"
   inkscape:connector-curvature="0" />
	<path
   d="m 187.461,214.072 c 0.576,0.528 0.864,1.248 0.864,2.16 v 12.456 c 0,0.841 -0.301,1.53 -0.9,2.069 -0.6,0.54 -1.38,0.811 -2.34,0.811 -0.864,0 -1.572,-0.233 -2.124,-0.702 -0.552,-0.468 -0.84,-1.098 -0.864,-1.89 -0.552,0.863 -1.254,1.523 -2.105,1.979 -0.853,0.456 -1.831,0.686 -2.935,0.686 -2.28,0 -3.972,-0.63 -5.076,-1.891 -1.104,-1.261 -1.655,-3.174 -1.655,-5.742 v -7.775 c 0,-0.912 0.287,-1.632 0.863,-2.16 0.576,-0.527 1.356,-0.791 2.34,-0.791 0.984,0 1.765,0.264 2.341,0.791 0.575,0.528 0.863,1.248 0.863,2.16 v 7.92 c 0,1.729 0.743,2.592 2.232,2.592 0.864,0 1.571,-0.312 2.124,-0.936 0.552,-0.624 0.828,-1.44 0.828,-2.448 v -7.128 c 0,-0.912 0.288,-1.632 0.863,-2.16 0.576,-0.527 1.355,-0.791 2.341,-0.791 0.984,-0.001 1.764,0.263 2.34,0.79 z"
   id="path242"
   inkscape:connector-curvature="0" />
	<path
   d="m 207.819,226.312 c 0.349,0.432 0.522,0.996 0.522,1.691 0,0.96 -0.468,1.691 -1.404,2.195 -0.815,0.409 -1.782,0.751 -2.897,1.026 -1.116,0.274 -2.143,0.414 -3.078,0.414 -1.968,0 -3.686,-0.372 -5.148,-1.116 -1.464,-0.743 -2.592,-1.812 -3.384,-3.204 -0.792,-1.392 -1.188,-3.023 -1.188,-4.896 0,-1.775 0.378,-3.365 1.134,-4.771 0.756,-1.404 1.812,-2.496 3.168,-3.275 1.354,-0.778 2.885,-1.17 4.59,-1.17 1.656,0 3.108,0.359 4.355,1.08 1.248,0.719 2.215,1.74 2.898,3.061 0.684,1.319 1.026,2.867 1.026,4.644 0,0.553 -0.126,0.979 -0.378,1.278 -0.252,0.301 -0.618,0.45 -1.099,0.45 h -9.504 c 0.168,1.15 0.54,1.979 1.116,2.482 0.576,0.505 1.428,0.757 2.556,0.757 0.601,0 1.152,-0.065 1.656,-0.197 0.504,-0.133 1.068,-0.318 1.692,-0.56 0.359,-0.144 0.714,-0.27 1.062,-0.378 0.348,-0.106 0.666,-0.162 0.954,-0.162 0.553,0.003 1.003,0.22 1.351,0.651 z m -9.522,-7.974 c -0.504,0.541 -0.805,1.327 -0.9,2.359 h 5.652 c -0.145,-2.112 -1.057,-3.169 -2.736,-3.169 -0.841,0 -1.512,0.271 -2.016,0.81 z"
   id="path244"
   inkscape:connector-curvature="0" />
	<path
   d="m 227.96,215.099 c 1.032,1.26 1.548,3.175 1.548,5.74 v 7.776 c 0,0.913 -0.288,1.633 -0.864,2.16 -0.576,0.528 -1.355,0.792 -2.34,0.792 -0.985,0 -1.764,-0.264 -2.34,-0.792 -0.576,-0.527 -0.864,-1.247 -0.864,-2.16 v -7.487 c 0,-1.057 -0.186,-1.823 -0.558,-2.305 -0.372,-0.479 -0.931,-0.72 -1.674,-0.72 -0.96,0 -1.724,0.306 -2.286,0.918 -0.564,0.611 -0.847,1.435 -0.847,2.466 v 7.128 c 0,0.913 -0.287,1.633 -0.863,2.16 -0.576,0.528 -1.356,0.792 -2.34,0.792 -0.984,0 -1.765,-0.264 -2.341,-0.792 -0.575,-0.527 -0.863,-1.247 -0.863,-2.16 V 216.16 c 0,-0.84 0.3,-1.529 0.899,-2.07 0.601,-0.539 1.38,-0.809 2.34,-0.809 0.912,0 1.639,0.252 2.179,0.756 0.54,0.504 0.81,1.164 0.81,1.979 0.624,-0.912 1.428,-1.608 2.412,-2.088 0.983,-0.479 2.075,-0.721 3.276,-0.721 2.112,0.002 3.684,0.631 4.716,1.892 z"
   id="path246"
   inkscape:connector-curvature="0" />
</g>
<linearGradient
   id="SVGID_11_"
   gradientUnits="userSpaceOnUse"
   x1="640.26251"
   y1="360.49979"
   x2="640.26251"
   y2="325.49979"
   gradientTransform="translate(-76.548836,3.4179688e-6)">
	<stop
   offset="0"
   style="stop-color:#FFFFFF"
   id="stop250" />
	<stop
   offset="1"
   style="stop-color:#FFFFFF;stop-opacity:0"
   id="stop252" />
</linearGradient>
<rect
   x="-76.548836"
   y="325.5"
   width="1280.524"
   height="35"
   id="rect255"
   style="fill:url(#SVGID_11_)" />
</svg>